<svg width="3257" height="589" viewBox="0 0 3257 589" fill="none" xmlns="http://www.w3.org/2000/svg">
<path d="M468.74 334L439.24 364L178.24 114L154.24 138L214.24 197.5L204.74 207L144.74 147.5L120.24 171.5L180.24 231.5L170.74 241L110.74 181.5L87.2402 205L337.24 466L307.24 496L466.24 493L468.74 334ZM290.74 202L392.74 300L439.24 255.5L468.74 285.5L466.24 126.5L307.24 124L337.24 154L290.74 202ZM270.74 418L177.24 320.5L87.2402 414.5L110.74 438.5L170.74 378.5L180.24 388L120.24 448L144.74 472.5L204.74 412.5L214.24 422L154.24 482L178.24 506L270.74 418Z" fill="black"/>
<path d="M798.633 417.105V397.77L803.906 397.623C812.598 397.33 820.557 395.914 827.783 393.375C846.826 386.734 860.498 373.209 868.799 352.799C872.705 343.326 875.293 331.754 876.562 318.082C876.758 316.422 876.855 312.76 876.855 307.096C876.855 301.334 876.758 297.818 876.562 296.549L876.416 294.791H825H773.438V254.068V213.346H874.805H976.025L975.879 227.994C975.488 276.725 971.826 314.713 964.893 341.959C961.768 354.068 958.203 364.225 954.199 372.428C950.781 379.459 946.924 385.611 942.627 390.885C938.916 395.572 934.473 400.064 929.297 404.361C922.168 410.123 915.918 414.518 910.547 417.545C901.562 422.721 891.455 426.725 880.225 429.557C869.092 432.291 855.371 434.195 839.062 435.27C827.246 436.148 815.479 436.588 803.76 436.588H798.633V417.105ZM1055.51 403.775V372.428H1078.36H1101.21V354.996V337.418L1085.39 337.271H1069.72L1069.57 305.924V274.576H1129.63H1189.54V306.07V337.418H1173.87H1158.19V354.996V372.428H1181.04H1203.9V403.775V435.27H1129.63H1055.51V403.775ZM1282.5 416.08V397.037L1286.31 396.891C1303.11 396.207 1316.88 393.082 1327.62 387.516C1349.2 376.383 1361.02 354.898 1363.07 323.062C1363.26 321.012 1363.36 317.887 1363.36 313.688C1363.36 309.391 1363.26 306.51 1363.07 305.045L1362.92 303.141H1322.78H1282.5V254.801V206.461H1371.71H1461.06L1461.36 211.148C1461.36 212.027 1461.41 213.639 1461.5 215.982C1461.7 218.229 1461.85 219.791 1461.94 220.67C1462.43 227.311 1462.72 235.465 1462.82 245.133C1463.41 283.805 1458.28 316.617 1447.44 343.57C1446.37 346.402 1445.83 347.965 1445.83 348.258C1446.03 351.383 1447.25 355.777 1449.49 361.441C1453.59 372.086 1460.04 380.484 1468.83 386.637C1477.62 392.691 1488.16 396.109 1500.47 396.891L1503.11 397.037V416.08V435.123H1498.42C1493.24 435.123 1487.43 434.635 1480.99 433.658C1452.37 429.654 1429.28 417.838 1411.7 398.209L1410.23 396.598L1407.89 398.502C1382.89 418.814 1349.3 430.729 1307.11 434.244C1299.59 434.83 1293.54 435.123 1288.95 435.123H1282.5V416.08Z" fill="black"/>
</svg>
