<svg width="759" height="324" viewBox="0 0 759 324" fill="none" xmlns="http://www.w3.org/2000/svg">
<rect x="134" y="16" width="500" height="250" fill="#1D2C28"/>
<path d="M134 16C117.585 16 101.33 19.2332 86.1646 25.5151C70.9989 31.7969 57.219 41.0043 45.6116 52.6116C34.0043 64.219 24.7969 77.9989 18.5151 93.1646C12.2332 108.33 9 124.585 9 141C9 157.415 12.2332 173.67 18.5151 188.835C24.7969 204.001 34.0043 217.781 45.6117 229.388C57.219 240.996 70.9989 250.203 86.1646 256.485C101.33 262.767 117.585 266 134 266L179.5 141L134 16Z" fill="#1D2C28"/>
<path d="M634 266C650.415 266 666.67 262.767 681.835 256.485C697.001 250.203 710.781 240.996 722.388 229.388C733.996 217.781 743.203 204.001 749.485 188.835C755.767 173.67 759 157.415 759 141C759 124.585 755.767 108.33 749.485 93.1646C743.203 77.9989 733.996 64.219 722.388 52.6116C710.781 41.0043 697.001 31.7969 681.835 25.5151C666.67 19.2332 650.415 16 634 16L587 141L634 266Z" fill="#1D2C28"/>
<ellipse cx="64.3503" cy="104.958" rx="51.5" ry="39.5" transform="rotate(-30 64.3503 104.958)" fill="#151F1C"/>
<ellipse cx="609.35" cy="205.958" rx="51.5" ry="39.5" transform="rotate(-30 609.35 205.958)" fill="#151F1C"/>
<ellipse cx="690.777" cy="99.8574" rx="34.2349" ry="26.2579" transform="rotate(-30 690.777 99.8574)" fill="#151F1C"/>
<ellipse cx="444.35" cy="59.958" rx="51.5" ry="39.5" transform="rotate(-30 444.35 59.958)" fill="#151F1C"/>
<ellipse cx="246.591" cy="193.545" rx="92.8076" ry="54.4341" transform="rotate(-30 246.591 193.545)" fill="#151F1C"/>
<ellipse cx="641" cy="283.5" rx="24" ry="40.5" fill="#1D2C28"/>
<ellipse cx="595.5" cy="277" rx="13.5" ry="20" fill="#1D2C28"/>
<path d="M286.545 167.506V144.117H275.998H265.451V132.984V121.803H275.998H286.545V117.213V112.574H298.02H309.445V117.213V121.803H319.992H330.539V132.984V144.117H319.992H309.445V167.506V190.895H298.02H286.545V167.506ZM255.002 187.525C255.002 187.428 255.116 187.118 255.344 186.598C259.413 176.865 261.74 167.766 262.326 159.303C262.456 156.829 262.521 154.762 262.521 153.102V152.906H271.75H280.979L281.027 155.592C281.027 160.475 280.995 163.502 280.93 164.674C280.572 171.868 278.716 178.997 275.363 186.061L274.631 187.525L264.816 187.574C258.273 187.574 255.002 187.558 255.002 187.525ZM320.725 186.158C318.609 181.633 317.144 177.532 316.33 173.854C315.451 169.947 315.012 164.43 315.012 157.301V152.906H324.24H333.518L333.566 155.104C333.664 159.758 334.087 164.088 334.836 168.092C335.617 172.096 336.822 176.36 338.449 180.885C339.263 183.229 340.044 185.23 340.793 186.891L341.086 187.574H331.271H321.408L320.725 186.158ZM357.189 147.535V133.668H383.898H410.559V147.535V161.354H383.898H357.189V147.535ZM485.695 189.283L484.377 185.328L468.166 185.279C457.359 185.279 451.955 185.312 451.955 185.377C451.955 185.475 447.756 185.523 439.357 185.523C433.889 185.523 430.406 185.523 428.908 185.523C427.443 185.491 426.727 185.458 426.76 185.426C426.76 185.328 429.982 173.723 436.428 150.611L446.096 115.895H458.693H471.291L471.242 116.09C471.242 116.122 470.982 117.066 470.461 118.922C469.94 120.777 469.11 123.772 467.971 127.906C466.831 132.04 465.806 135.735 464.895 138.99L458.547 161.793H467.531H476.564C476.174 160.458 475.718 158.993 475.197 157.398C474.969 156.715 474.725 155.999 474.465 155.25C474.237 154.501 474.058 153.948 473.928 153.59L473.732 153.004H486.33H498.928L505.52 173.023C509.914 186.37 512.111 193.059 512.111 193.092C512.111 193.157 507.928 193.189 499.562 193.189H486.965L485.695 189.283Z" fill="#4ED3B0"/>
<path d="M282.279 164.506V141.117H271.732H261.186V129.984V118.803H271.732H282.279V114.213V109.574H293.754H305.18V114.213V118.803H315.727H326.273V129.984V141.117H315.727H305.18V164.506V187.895H293.754H282.279V164.506ZM250.736 184.525C250.736 184.428 250.85 184.118 251.078 183.598C255.147 173.865 257.475 164.766 258.061 156.303C258.191 153.829 258.256 151.762 258.256 150.102V149.906H267.484H276.713L276.762 152.592C276.762 157.475 276.729 160.502 276.664 161.674C276.306 168.868 274.451 175.997 271.098 183.061L270.365 184.525L260.551 184.574C254.008 184.574 250.736 184.558 250.736 184.525ZM316.459 183.158C314.343 178.633 312.878 174.532 312.064 170.854C311.186 166.947 310.746 161.43 310.746 154.301V149.906H319.975H329.252L329.301 152.104C329.398 156.758 329.822 161.088 330.57 165.092C331.352 169.096 332.556 173.36 334.184 177.885C334.997 180.229 335.779 182.23 336.527 183.891L336.82 184.574H327.006H317.143L316.459 183.158ZM352.924 144.535V130.668H379.633H406.293V144.535V158.354H379.633H352.924V144.535ZM481.43 186.283L480.111 182.328L463.9 182.279C453.093 182.279 447.689 182.312 447.689 182.377C447.689 182.475 443.49 182.523 435.092 182.523C429.623 182.523 426.14 182.523 424.643 182.523C423.178 182.491 422.462 182.458 422.494 182.426C422.494 182.328 425.717 170.723 432.162 147.611L441.83 112.895H454.428H467.025L466.977 113.09C466.977 113.122 466.716 114.066 466.195 115.922C465.674 117.777 464.844 120.772 463.705 124.906C462.566 129.04 461.54 132.735 460.629 135.99L454.281 158.793H463.266H472.299C471.908 157.458 471.452 155.993 470.932 154.398C470.704 153.715 470.46 152.999 470.199 152.25C469.971 151.501 469.792 150.948 469.662 150.59L469.467 150.004H482.064H494.662L501.254 170.023C505.648 183.37 507.846 190.059 507.846 190.092C507.846 190.157 503.663 190.189 495.297 190.189H482.699L481.43 186.283Z" fill="white"/>
</svg>
