<svg width="935" height="1241" viewBox="0 0 935 1241" fill="none" xmlns="http://www.w3.org/2000/svg">
<path d="M348.215 154C327.215 164 340.215 214 360.215 271C372.215 306 391.215 343 418.215 390C374.215 251 424.215 128 351.215 153C350.215 153 349.215 154 348.215 154ZM297.215 422C292.215 437 297.215 454 308.215 462C319.215 470 337.215 457 343.215 444C349.215 431 332.215 416 321.215 408C308.215 398 300.215 411 297.215 422ZM418.215 399C408.215 412 438.215 483 416.215 515C402.215 535 387.215 461 349.215 500C362.215 531 400.215 539 366.215 568C339.215 591 314.215 578 301.215 585C305.215 599 346.215 597 339.215 632C332.215 667 231.215 592 229.215 669C222.215 774 330.215 665 338.215 699C347.215 734 303.215 748 287.215 759C309.215 763 344.215 740 364.215 770C384.215 800 327.215 801 353.215 826C379.215 851 383.215 804 414.215 823C445.215 842 431.215 963 434.215 988C445.215 978 439.215 832 475.215 839C511.215 846 489.215 893 525.215 891C561.215 889 513.215 845 548.215 837C583.215 829 580.215 847 594.215 851C602.215 839 581.215 823 616.215 814C651.215 805 676.215 914 684.215 842C708.215 803 645.215 789 666.215 761C685.215 736 708.215 764 736.215 760C711.215 725 663.215 731 690.215 706C716.215 683 902.215 743 828.215 660C770.215 629 682.215 669 695.215 632C707.215 598 728.215 601 729.215 583C713.215 575 677.215 591 656.215 561C635.215 531 667.215 550 642.215 524C617.215 498 646.215 534 614.215 517C588.215 504 623.215 481 607.215 438C592.215 453 585.215 498 549.215 491C513.215 484 551.215 462 514.215 463C477.215 464 509.215 491 473.215 498C437.215 505 435.215 406 418.215 399ZM151.215 526C140.215 566 205.215 546 282.215 579C256.215 561 234.215 548 215.215 539C187.215 527 158.215 511 151.215 526ZM660.215 322C643.215 331 645.215 381 613.215 433C633.215 412 647.215 395 657.215 379C675.215 352 688.215 328 676.215 323C669.215 320 664.215 320 660.215 322ZM78.2148 620C55.2148 631 68.2148 672 80.2148 699C93.2148 727 119.215 732 147.215 719C175.215 706 188.215 676 175.215 648C162.215 620 110.215 610 82.2148 618C81.2148 618 79.2148 619 78.2148 620ZM166.215 621C169.215 631 177.215 639 185.215 640C193.215 641 196.215 628 194.215 619C192.215 610 181.215 607 173.215 606C164.215 606 163.215 610 166.215 621ZM680.215 466C674.215 479 676.215 491 686.215 495C696.215 499 714.215 484 721.215 473C728.215 462 715.215 454 705.215 450C691.215 446 685.215 455 680.215 466ZM124.215 819C61.2148 847 11.2148 874 22.2148 898C56.2148 969 118.215 843 263.215 774C205.215 788 161.215 802 124.215 819ZM850.215 514C825.215 525 788.215 563 729.215 582C766.215 579 794.215 576 818.215 569C858.215 558 891.215 545 883.215 528C874.215 509 864.215 508 850.215 514ZM148.215 870C121.215 889 101.215 905 85.2148 921C58.2148 948 38.2148 972 48.2148 980C77.2149 1005 87.2148 933 148.215 870ZM738.215 764C766.215 795 790.215 819 811.215 837C847.215 868 877.215 892 883.215 881C901.215 847 823.215 835 738.215 764ZM599.215 859C602.215 890 605.215 915 611.215 934C622.215 967 632.215 993 648.215 984C695.215 958 626.215 934 599.215 859ZM514.215 946C490.215 968 529.215 999 550.215 980C561.215 970 557.215 946 549.215 935C539.215 923 519.215 941 514.215 946Z" fill="url(#paint0_linear_1_146)"/>
<path d="M126.23 732.734C126.23 731.888 126.133 726.517 125.938 716.621C125.938 715.124 125.905 713.333 125.84 711.25C125.84 709.167 125.807 707.539 125.742 706.367C125.742 705.13 125.742 704.349 125.742 704.023L125.645 701.875L124.57 701.973C124.375 702.038 123.952 702.103 123.301 702.168C122.715 702.233 122.324 702.266 122.129 702.266C121.087 702.396 114.089 702.461 101.133 702.461L81.5039 702.559V688.301V674.141L82.9688 673.75C94.362 671.016 104.388 667.077 113.047 661.934C117.799 659.069 121.771 656.432 124.961 654.023C125.872 653.372 126.947 652.135 128.184 650.312C133.001 643.151 136.289 636.836 138.047 631.367C139.609 626.484 140.977 619.746 142.148 611.152L142.539 607.637V596.504V585.469H176.133H209.727L209.629 593.086C209.564 599.727 209.271 605.033 208.75 609.004C206.276 629.837 198.952 648.359 186.777 664.57C183.652 668.802 179.746 673.197 175.059 677.754L173.301 679.414L173.203 686.152C173.008 694.811 172.715 704.87 172.324 716.328C171.868 730.781 171.608 738.04 171.543 738.105C171.543 738.236 163.991 738.301 148.887 738.301H126.328L126.23 732.734ZM298.535 737.715C298.73 736.348 299.219 730.098 300 718.965C301.172 702.038 301.953 685.371 302.344 668.965L302.441 664.375H292.188H281.934V632.637V600.996H292.09H302.246L302.148 591.23L302.051 581.465H328.125H354.199V591.23V600.996H385.059H415.918V669.453V738.008H389.746H363.574L363.672 737.715C364.193 735.892 364.648 733.743 365.039 731.27C366.146 723.913 366.895 712.487 367.285 696.992C367.611 681.693 367.708 671.764 367.578 667.207L367.48 664.375H359.277H351.172L351.074 665.156C351.074 666.003 350.911 668.314 350.586 672.09C348.177 704.056 345.312 725.768 341.992 737.227L341.797 738.008H320.117H298.438L298.535 737.715ZM488.223 663.203V593.77H556.68H625.137V663.203V732.734H556.68H488.223V663.203ZM576.992 666.133V647.285H556.68H536.367V666.133V684.883H556.68H576.992V666.133ZM707.891 732.93L707.988 724.336L710.039 723.555C723.255 718.867 735.137 711.934 745.684 702.754C748.874 699.954 752.096 696.699 755.352 692.988C767.917 678.535 776.217 661.771 780.254 642.695L780.352 642.207H766.289H752.324L748.027 656.855L743.828 671.406H720.684C705.189 671.406 697.441 671.341 697.441 671.211C697.441 671.146 701.413 657.376 709.355 629.902L721.27 588.789L781.23 588.691C821.139 588.691 841.094 588.757 841.094 588.887C841.094 589.082 839.661 597.936 836.797 615.449C833.997 632.897 832.533 641.882 832.402 642.402C832.402 642.533 832.305 642.988 832.109 643.77C831.979 644.486 831.784 645.462 831.523 646.699C831.328 647.871 831.133 648.978 830.938 650.02C829.31 659.069 827.747 666.23 826.25 671.504C824.818 676.712 823.092 681.4 821.074 685.566C819.447 688.822 817.005 692.76 813.75 697.383C810.56 702.005 807.337 706.139 804.082 709.785C800.957 713.366 797.767 716.491 794.512 719.16C786.439 725.931 777.389 731.074 767.363 734.59C757.337 738.105 745.456 740.286 731.719 741.133C726.38 741.458 720.716 741.621 714.727 741.621H707.891V732.93ZM783.574 559.102V537.129H795.879H808.184V559.102V580.977H795.879H783.574V559.102ZM815.117 559.102V537.129H827.422H839.727V559.102V580.977H827.422H815.117V559.102Z" fill="black"/>
<defs>
<linearGradient id="paint0_linear_1_146" x1="729" y1="314.5" x2="249" y2="1149.5" gradientUnits="userSpaceOnUse">
<stop stop-color="#C1A4FF"/>
<stop offset="1" stop-color="#BFFFC9"/>
</linearGradient>
</defs>
</svg>
