<svg width="3257" height="589" viewBox="0 0 3257 589" fill="none" xmlns="http://www.w3.org/2000/svg">
<path d="M468.74 334L439.24 364L178.24 114L154.24 138L214.24 197.5L204.74 207L144.74 147.5L120.24 171.5L180.24 231.5L170.74 241L110.74 181.5L87.2402 205L337.24 466L307.24 496L466.24 493L468.74 334ZM290.74 202L392.74 300L439.24 255.5L468.74 285.5L466.24 126.5L307.24 124L337.24 154L290.74 202ZM270.74 418L177.24 320.5L87.2402 414.5L110.74 438.5L170.74 378.5L180.24 388L120.24 448L144.74 472.5L204.74 412.5L214.24 422L154.24 482L178.24 506L270.74 418Z" fill="black"/>
<path d="M839.227 425.309H837.322V409.781V394.254L840.398 393.961C851.141 392.887 861.102 389.859 870.281 384.879C879.461 379.801 885.809 373.844 889.324 367.008C894.402 356.949 892.596 347.574 883.904 338.883C880.779 335.758 875.408 333.756 867.791 332.877C866.131 332.682 862.078 332.584 855.633 332.584C849.188 332.584 844.549 332.682 841.717 332.877C833.611 333.365 820.574 334.635 802.605 336.686C787.957 338.443 778.729 339.42 774.92 339.615C774.432 339.615 773.797 339.664 773.016 339.762C772.332 339.859 771.697 339.957 771.111 340.055C770.623 340.055 770.281 340.055 770.086 340.055H768.621V294.791V249.527L772.723 249.381C773.309 249.381 774.627 249.332 776.678 249.234C778.729 249.137 781.268 249.039 784.295 248.941C787.42 248.746 790.203 248.6 792.645 248.502C816.668 247.428 835.809 246.842 850.066 246.744C885.027 246.451 908.855 248.453 921.551 252.75C928.68 255.191 936.395 259.635 944.695 266.08C946.844 267.838 949.09 269.889 951.434 272.232C957 277.994 961.59 284.439 965.203 291.568C969.012 299.186 971.502 307.682 972.674 317.057C972.869 318.912 972.967 322.086 972.967 326.578C972.967 331.07 972.82 334.293 972.527 336.246C970.965 348.16 967.596 359.293 962.42 369.645C957.049 380.387 950.311 389.664 942.205 397.477C934.197 405.289 925.262 411.246 915.398 415.348C902.996 420.426 885.76 423.648 863.689 425.016C861.639 425.113 857.391 425.211 850.945 425.309C844.598 425.406 840.691 425.406 839.227 425.309ZM1146.93 437.906C1121.15 436.441 1101.72 430.045 1088.63 418.717C1081.5 412.662 1077.16 405.436 1075.59 397.037C1074.91 393.326 1074.96 389.42 1075.74 385.318C1077.11 378.385 1080.67 372.135 1086.43 366.568C1095.71 357.682 1108.41 352.311 1124.52 350.455C1125.3 350.26 1125.69 350.064 1125.69 349.869L1124.23 345.475C1124.03 344.889 1123.79 344.205 1123.49 343.424C1123.2 342.643 1122.96 342.008 1122.76 341.52C1122.57 341.031 1122.47 340.689 1122.47 340.494L1122.18 339.469H1088.19H1054.06V312.662V285.709H1080.28C1097.76 285.709 1106.5 285.611 1106.5 285.416C1106.5 285.221 1106.11 283.463 1105.33 280.143C1104.55 276.725 1104.06 274.723 1103.87 274.137C1103.77 273.844 1095.03 273.697 1077.64 273.697H1051.57V249.967V226.236H1072.52C1086.38 226.236 1093.32 226.09 1093.32 225.797C1093.32 225.699 1093.22 224.967 1093.03 223.6C1092.83 222.623 1092.49 220.719 1092 217.887C1091.51 215.055 1091.02 212.467 1090.54 210.123L1089.95 206.607C1089.95 206.51 1103.28 206.461 1129.94 206.461C1156.7 206.461 1170.12 206.51 1170.22 206.607V207.047C1170.32 207.438 1170.42 207.926 1170.52 208.512C1170.61 209 1170.71 209.537 1170.81 210.123C1172.08 218.814 1172.91 223.99 1173.3 225.65L1173.45 226.236H1201.13H1228.82V249.967V273.697H1205.67C1190.34 273.697 1182.67 273.795 1182.67 273.99C1182.67 274.283 1183.11 276.285 1183.99 279.996L1185.31 285.562L1208.31 285.709H1231.31V312.662V339.469H1215.93C1205.57 339.469 1200.4 339.615 1200.4 339.908C1200.4 340.396 1201.72 344.449 1204.35 352.066C1207.09 359.684 1209.19 365.25 1210.65 368.766L1211.82 371.988C1209.77 372.379 1207.53 372.818 1205.09 373.307C1198.74 374.479 1192.39 375.553 1186.04 376.529C1181.45 377.115 1178.18 377.75 1176.23 378.434C1172.32 379.703 1169.29 381.461 1167.15 383.707C1165 385.855 1163.92 388.297 1163.92 391.031C1163.92 393.863 1165.24 396.549 1167.88 399.088C1171.69 402.701 1177.55 404.947 1185.46 405.826C1193.37 406.607 1202.21 405.924 1211.97 403.775L1214.61 403.189C1214.71 407.291 1214.75 411.832 1214.75 416.812V430.436L1213.88 430.582C1209.58 431.754 1203.04 433.072 1194.25 434.537C1179.4 436.979 1166.17 438.15 1154.55 438.053C1153.18 438.053 1151.57 438.004 1149.71 437.906H1146.93ZM1149.71 163.98V131.168H1168.17H1186.63V163.98V196.939H1168.17H1149.71V163.98ZM1196.88 163.98V131.168H1215.49H1233.94V163.98V196.939H1215.49H1196.88V163.98ZM1477.49 426.627L1476.46 426.48L1476.61 410.367V394.254L1478.66 393.668C1487.64 391.324 1495.26 387.809 1501.51 383.121C1504.83 380.68 1507.71 377.799 1510.15 374.479C1516.79 365.689 1518.75 355.924 1516.01 345.182C1513.87 336.979 1509.52 329.752 1502.98 323.502C1494.97 315.787 1481.88 311.197 1463.72 309.732C1463.04 309.732 1462.3 309.684 1461.52 309.586C1460.74 309.488 1460.11 309.439 1459.62 309.439C1459.23 309.342 1458.98 309.293 1458.88 309.293H1458.45V322.623C1458.45 332.682 1458.01 341.227 1457.13 348.258C1453.81 374.137 1445.12 393.912 1431.05 407.584C1418.75 419.596 1402.83 425.895 1383.3 426.48C1372.46 426.773 1362.74 425.211 1354.15 421.793C1341.75 416.91 1331.98 408.902 1324.85 397.77C1317.82 386.539 1313.67 372.623 1312.4 356.021C1311.91 347.623 1312.06 338.932 1312.84 329.947C1314.5 312.76 1318.41 297.672 1324.56 284.684C1331.79 269.645 1342.04 257.291 1355.32 247.623C1368.6 237.955 1384.52 231.266 1403.07 227.555C1423.97 223.453 1445.12 223.307 1466.5 227.115C1491.79 231.803 1513.43 241.91 1531.39 257.438C1540.28 265.152 1547.75 273.844 1553.81 283.512C1559.86 293.18 1563.96 302.945 1566.11 312.809C1566.89 316.324 1567.33 320.377 1567.43 324.967C1567.72 330.729 1567.92 334.781 1568.02 337.125C1568.6 351.578 1567.04 364.273 1563.33 375.211C1561.08 381.559 1558.2 387.369 1554.69 392.643C1552.15 396.451 1548.78 400.455 1544.58 404.654C1537.84 411.393 1531.1 416.373 1524.36 419.596C1517.62 422.721 1509.13 424.918 1498.88 426.188C1496.73 426.48 1492.82 426.627 1487.16 426.627H1477.49ZM1377 359.684C1378.27 359.879 1379.83 359.684 1381.69 359.098C1383.54 358.512 1385.4 357.242 1387.25 355.289C1389.21 353.336 1390.77 351.041 1391.94 348.404C1395.07 341.275 1396.34 332.486 1395.75 322.037C1395.26 315.104 1394.82 311.344 1394.43 310.758C1394.24 310.562 1393.36 310.514 1391.79 310.611C1384.47 311.1 1378.51 312.906 1373.92 316.031C1370.99 318.082 1368.7 320.523 1367.04 323.355C1364.89 326.871 1363.62 331.217 1363.23 336.393C1362.84 341.178 1363.57 345.523 1365.43 349.43C1366.7 351.969 1368.21 354.117 1369.97 355.875C1372.12 358.023 1374.46 359.293 1377 359.684ZM1646.77 416.08V397.037L1650.57 396.891C1667.37 396.207 1681.14 393.082 1691.88 387.516C1713.46 376.383 1725.28 354.898 1727.33 323.062C1727.53 321.012 1727.62 317.887 1727.62 313.688C1727.62 309.391 1727.53 306.51 1727.33 305.045L1727.19 303.141H1687.05H1646.77V254.801V206.461H1735.97H1825.33L1825.62 211.148C1825.62 212.027 1825.67 213.639 1825.77 215.982C1825.96 218.229 1826.11 219.791 1826.21 220.67C1826.7 227.311 1826.99 235.465 1827.09 245.133C1827.67 283.805 1822.55 316.617 1811.71 343.57C1810.63 346.402 1810.1 347.965 1810.1 348.258C1810.29 351.383 1811.51 355.777 1813.76 361.441C1817.86 372.086 1824.3 380.484 1833.09 386.637C1841.88 392.691 1852.43 396.109 1864.73 396.891L1867.37 397.037V416.08V435.123H1862.68C1857.51 435.123 1851.7 434.635 1845.25 433.658C1816.64 429.654 1793.54 417.838 1775.96 398.209L1774.5 396.598L1772.16 398.502C1747.16 418.814 1713.56 430.729 1671.38 434.244C1663.86 434.83 1657.8 435.123 1653.21 435.123H1646.77V416.08ZM1956.96 421.939V408.756H1960.18C1964.87 408.756 1970 407.926 1975.56 406.266C1981.13 404.508 1985.67 402.359 1989.19 399.82C1996.32 394.742 2001.2 386.881 2003.84 376.236C2005.79 368.521 2006.77 357.438 2006.77 342.984V334.342H1976.3H1945.83V299.918V265.348H2047.63H2149.29V299.918V334.342H2115.31H2081.33V337.857C2081.33 350.357 2080.54 361.734 2078.98 371.988C2076.05 392.789 2068.88 407.73 2057.45 416.812C2049.34 423.355 2038.11 428.092 2023.76 431.021C2009.4 433.854 1990.12 435.27 1965.9 435.27H1956.96V421.939ZM1966.34 223.014V197.525H2047.78H2129.08V223.014V248.355H2047.78H1966.34V223.014ZM2227.9 304.605V263.004H2308.03H2388.01V304.605V346.061H2308.03H2227.9V304.605ZM2468.51 438.639L2466.61 438.492V403.922V369.352L2467.34 369.205C2467.44 369.205 2467.78 369.205 2468.37 369.205C2469.05 369.107 2469.83 369.059 2470.71 369.059C2471.69 369.059 2472.57 369.059 2473.35 369.059C2489.36 368.668 2505.53 366.812 2521.83 363.492C2538.14 360.172 2552.35 355.826 2564.46 350.455C2577.06 344.889 2587.56 337.76 2595.96 329.068C2602.79 322.037 2608.65 313.688 2613.53 304.02C2621.54 287.809 2626.47 268.082 2628.33 244.84C2628.52 242.301 2628.62 237.076 2628.62 229.166C2628.72 221.158 2628.67 215.689 2628.47 212.76L2628.33 209.684H2655.28H2682.09L2682.23 221.695C2682.33 229.215 2682.33 240.494 2682.23 255.533C2682.14 270.572 2682.04 279.41 2681.94 282.047C2681.16 294.156 2680.43 302.848 2679.74 308.121C2673.88 355.875 2658.55 389.518 2633.75 409.049C2626.81 414.42 2619.25 418.912 2611.04 422.525C2591.22 431.021 2557.14 436.295 2508.8 438.346C2506.06 438.443 2499.03 438.541 2487.7 438.639C2476.47 438.736 2470.08 438.736 2468.51 438.639ZM2514.22 334.781L2466.61 329.215V305.484V281.9H2467.2C2467.78 281.9 2483.7 283.756 2514.95 287.467C2545.42 291.08 2561.19 292.887 2562.26 292.887C2562.46 292.887 2562.56 300.846 2562.56 316.764V340.494H2562.12C2562.02 340.494 2559.92 340.25 2555.82 339.762C2551.81 339.273 2545.71 338.541 2537.51 337.564C2529.3 336.588 2521.54 335.66 2514.22 334.781ZM2514.95 268.57C2484.38 264.957 2468.76 263.102 2468.07 263.004L2466.61 262.857V239.127V215.396L2467.63 215.543C2468.32 215.738 2484.14 217.594 2515.1 221.109C2522.52 221.988 2530.18 222.916 2538.09 223.893C2546 224.771 2551.96 225.455 2555.96 225.943C2559.97 226.432 2562.02 226.676 2562.12 226.676H2562.56V250.406V273.99H2561.53C2561.34 273.99 2545.81 272.184 2514.95 268.57ZM2602.69 166.031V133.219H2621.3H2639.9V166.031V198.844H2621.3H2602.69V166.031ZM2650.01 166.031V133.219H2668.46H2686.92V166.031V198.844H2668.46H2650.01V166.031Z" fill="black"/>
</svg>
