<svg width="880" height="398" viewBox="0 0 880 398" fill="none" xmlns="http://www.w3.org/2000/svg">
<g filter="url(#filter0_f_1_107)">
<rect x="11" y="82.298" width="841" height="312" transform="rotate(-5 11 82.298)" fill="#45743E"/>
</g>
<g clip-path="url(#clip0_1_107)">
<rect width="841" height="312" transform="translate(0 73.298) rotate(-5)" fill="white"/>
<rect y="73.298" width="841" height="312" transform="rotate(-5 0 73.298)" fill="#64DB51"/>
<rect x="600" y="-17.0087" width="81.9827" height="423.508" transform="rotate(-30 600 -17.0087)" fill="#51D03D"/>
<rect x="432" y="16.9913" width="81.9827" height="423.508" transform="rotate(-30 432 16.9913)" fill="#51D03D"/>
<rect x="261" y="47.9913" width="81.9827" height="396.398" transform="rotate(-30 261 47.9913)" fill="#51D03D"/>
<rect x="80" y="59.9915" width="81.9827" height="396.398" transform="rotate(-30 80 59.9915)" fill="#51D03D"/>
<rect x="-71" y="123.991" width="81.9827" height="396.398" transform="rotate(-30 -71 123.991)" fill="#51D03D"/>
<rect x="715" y="-144.009" width="81.9827" height="396.398" transform="rotate(-30 715 -144.009)" fill="#51D03D"/>
</g>
<path d="M208.026 260.664L208.026 252.461L210.077 252.461C217.206 252.461 223.017 250.85 227.509 247.627C229.413 246.26 230.951 244.746 232.123 243.086C234.467 239.961 236.029 235.811 236.811 230.635C236.908 229.951 236.981 226.362 237.03 219.868L237.104 210.493L222.382 210.493L207.66 210.493L207.66 186.104L207.66 161.714L222.309 161.714L237.03 161.641L237.03 154.463L237.104 147.285L259.516 147.285L281.928 147.285L281.928 154.463L281.928 161.714L294.525 161.714L307.123 161.714L307.123 186.104L307.123 210.493L294.525 210.493L281.928 210.493L281.854 220.894C281.854 227.632 281.806 231.587 281.708 232.759C281.024 239.302 279.315 244.624 276.581 248.726C272.919 254.243 267.133 258.589 259.223 261.763C247.406 266.548 232.196 268.94 213.593 268.94L208.026 268.94L208.026 260.664ZM372.689 263.301C372.689 262.666 372.616 258.638 372.47 251.216C372.47 250.093 372.445 248.75 372.396 247.187C372.396 245.625 372.372 244.404 372.323 243.525C372.323 242.598 372.323 242.012 372.323 241.768L372.25 240.156L371.444 240.229C371.298 240.278 370.98 240.327 370.492 240.376C370.053 240.425 369.76 240.449 369.613 240.449C368.832 240.547 363.583 240.596 353.866 240.596L339.145 240.669L339.145 229.976L339.145 219.355L340.243 219.062C348.788 217.012 356.308 214.058 362.802 210.2C366.366 208.052 369.345 206.074 371.737 204.268C372.421 203.779 373.227 202.852 374.154 201.484C377.768 196.113 380.233 191.377 381.552 187.275C382.724 183.613 383.749 178.56 384.628 172.114L384.921 169.478L384.921 161.128L384.921 152.852L410.116 152.852L435.312 152.852L435.238 158.564C435.189 163.545 434.97 167.524 434.579 170.503C432.724 186.128 427.23 200.02 418.1 212.178C415.756 215.352 412.826 218.647 409.311 222.065L407.992 223.311L407.919 228.364C407.772 234.858 407.553 242.402 407.26 250.996C406.918 261.836 406.723 267.28 406.674 267.329C406.674 267.427 401.01 267.476 389.682 267.476L372.763 267.476L372.689 263.301ZM466.967 258.54L466.967 249.019L468.871 248.945C477.27 248.604 484.154 247.041 489.525 244.258C500.316 238.691 506.225 227.949 507.25 212.031C507.348 211.006 507.396 209.443 507.396 207.344C507.396 205.195 507.348 203.755 507.25 203.022L507.177 202.07L487.108 202.07L466.967 202.07L466.967 177.9L466.967 153.73L511.571 153.73L556.249 153.73L556.396 156.074C556.396 156.514 556.42 157.319 556.469 158.491C556.566 159.614 556.64 160.396 556.688 160.835C556.933 164.155 557.079 168.232 557.128 173.066C557.421 192.402 554.857 208.809 549.438 222.285C548.9 223.701 548.632 224.482 548.632 224.629C548.729 226.191 549.34 228.389 550.463 231.221C552.514 236.543 555.736 240.742 560.131 243.818C564.525 246.846 569.799 248.555 575.951 248.945L577.27 249.019L577.27 258.54L577.27 268.062L574.926 268.062C572.338 268.062 569.433 267.817 566.21 267.329C551.903 265.327 540.355 259.419 531.566 249.604L530.834 248.799L529.662 249.751C517.162 259.907 500.365 265.864 479.271 267.622C475.512 267.915 472.484 268.062 470.189 268.062L466.967 268.062L466.967 258.54ZM631.117 257.661L631.117 246.821L649.867 246.821L668.544 246.821L668.544 257.661L668.544 268.428L649.867 268.428L631.117 268.428L631.117 257.661ZM630.678 234.37L630.165 228.877C629.823 225.215 629.311 219.795 628.627 212.617C627.992 205.391 627.357 198.335 626.723 191.45C624.135 162.788 622.841 148.433 622.841 148.384L622.841 148.091L649.867 148.091L676.82 148.091L676.82 148.384C676.82 148.433 675.526 162.788 672.938 191.45C672.353 197.847 671.718 204.829 671.034 212.397C670.351 219.966 669.838 225.508 669.496 229.023L669.057 234.37C669.057 234.419 662.66 234.443 649.867 234.443C637.074 234.443 630.678 234.419 630.678 234.37Z" fill="#39932A"/>
<path d="M204.026 255.664L204.026 247.461L206.077 247.461C213.206 247.461 219.017 245.85 223.509 242.627C225.413 241.26 226.951 239.746 228.123 238.086C230.467 234.961 232.029 230.811 232.811 225.635C232.908 224.951 232.981 221.362 233.03 214.868L233.104 205.493L218.382 205.493L203.66 205.493L203.66 181.104L203.66 156.714L218.309 156.714L233.03 156.641L233.03 149.463L233.104 142.285L255.516 142.285L277.928 142.285L277.928 149.463L277.928 156.714L290.525 156.714L303.123 156.714L303.123 181.104L303.123 205.493L290.525 205.493L277.928 205.493L277.854 215.894C277.854 222.632 277.806 226.587 277.708 227.759C277.024 234.302 275.315 239.624 272.581 243.726C268.919 249.243 263.133 253.589 255.223 256.763C243.406 261.548 228.196 263.94 209.593 263.94L204.026 263.94L204.026 255.664ZM368.689 258.301C368.689 257.666 368.616 253.638 368.47 246.216C368.47 245.093 368.445 243.75 368.396 242.187C368.396 240.625 368.372 239.404 368.323 238.525C368.323 237.598 368.323 237.012 368.323 236.768L368.25 235.156L367.444 235.229C367.298 235.278 366.98 235.327 366.492 235.376C366.053 235.425 365.76 235.449 365.613 235.449C364.832 235.547 359.583 235.596 349.866 235.596L335.145 235.669L335.145 224.976L335.145 214.355L336.243 214.062C344.788 212.012 352.308 209.058 358.802 205.2C362.366 203.052 365.345 201.074 367.737 199.268C368.421 198.779 369.227 197.852 370.154 196.484C373.768 191.113 376.233 186.377 377.552 182.275C378.724 178.613 379.749 173.56 380.628 167.114L380.921 164.478L380.921 156.128L380.921 147.852L406.116 147.852L431.312 147.852L431.238 153.564C431.189 158.545 430.97 162.524 430.579 165.503C428.724 181.128 423.23 195.02 414.1 207.178C411.756 210.352 408.826 213.647 405.311 217.065L403.992 218.311L403.919 223.364C403.772 229.858 403.553 237.402 403.26 245.996C402.918 256.836 402.723 262.28 402.674 262.329C402.674 262.427 397.01 262.476 385.682 262.476L368.763 262.476L368.689 258.301ZM462.967 253.54L462.967 244.019L464.871 243.945C473.27 243.604 480.154 242.041 485.525 239.258C496.316 233.691 502.225 222.949 503.25 207.031C503.348 206.006 503.396 204.443 503.396 202.344C503.396 200.195 503.348 198.755 503.25 198.022L503.177 197.07L483.108 197.07L462.967 197.07L462.967 172.9L462.967 148.73L507.571 148.73L552.249 148.73L552.396 151.074C552.396 151.514 552.42 152.319 552.469 153.491C552.566 154.614 552.64 155.396 552.688 155.835C552.933 159.155 553.079 163.232 553.128 168.066C553.421 187.402 550.857 203.809 545.438 217.285C544.9 218.701 544.632 219.482 544.632 219.629C544.729 221.191 545.34 223.389 546.463 226.221C548.514 231.543 551.736 235.742 556.131 238.818C560.525 241.846 565.799 243.555 571.951 243.945L573.27 244.019L573.27 253.54L573.27 263.062L570.926 263.062C568.338 263.062 565.433 262.817 562.21 262.329C547.903 260.327 536.355 254.419 527.566 244.604L526.834 243.799L525.662 244.751C513.162 254.907 496.365 260.864 475.271 262.622C471.512 262.915 468.484 263.062 466.189 263.062L462.967 263.062L462.967 253.54ZM627.117 252.661L627.117 241.821L645.867 241.821L664.544 241.821L664.544 252.661L664.544 263.428L645.867 263.428L627.117 263.428L627.117 252.661ZM626.678 229.37L626.165 223.877C625.823 220.215 625.311 214.795 624.627 207.617C623.992 200.391 623.357 193.335 622.723 186.45C620.135 157.788 618.841 143.433 618.841 143.384L618.841 143.091L645.867 143.091L672.82 143.091L672.82 143.384C672.82 143.433 671.526 157.788 668.938 186.45C668.353 192.847 667.718 199.829 667.034 207.397C666.351 214.966 665.838 220.508 665.496 224.023L665.057 229.37C665.057 229.419 658.66 229.443 645.867 229.443C633.074 229.443 626.678 229.419 626.678 229.37Z" fill="white"/>
<defs>
<filter id="filter0_f_1_107" x="7" y="5" width="872.992" height="392.111" filterUnits="userSpaceOnUse" color-interpolation-filters="sRGB">
<feFlood flood-opacity="0" result="BackgroundImageFix"/>
<feBlend mode="normal" in="SourceGraphic" in2="BackgroundImageFix" result="shape"/>
<feGaussianBlur stdDeviation="2" result="effect1_foregroundBlur_1_107"/>
</filter>
<clipPath id="clip0_1_107">
<rect width="841" height="312" fill="white" transform="translate(0 73.298) rotate(-5)"/>
</clipPath>
</defs>
</svg>
