<svg width="3257" height="589" viewBox="0 0 3257 589" fill="none" xmlns="http://www.w3.org/2000/svg">
<path d="M468.74 334L439.24 364L178.24 114L154.24 138L214.24 197.5L204.74 207L144.74 147.5L120.24 171.5L180.24 231.5L170.74 241L110.74 181.5L87.2402 205L337.24 466L307.24 496L466.24 493L468.74 334ZM290.74 202L392.74 300L439.24 255.5L468.74 285.5L466.24 126.5L307.24 124L337.24 154L290.74 202ZM270.74 418L177.24 320.5L87.2402 414.5L110.74 438.5L170.74 378.5L180.24 388L120.24 448L144.74 472.5L204.74 412.5L214.24 422L154.24 482L178.24 506L270.74 418Z" fill="black"/>
<path d="M779.021 427.506C769.646 403.873 762.957 382.828 758.953 364.371C755.047 345.914 752.557 324.283 751.482 299.479C750.994 289.811 750.701 274.771 750.604 254.361L750.457 229.166H794.842C824.334 229.166 839.08 229.312 839.08 229.605C839.08 230.582 839.031 231.559 838.934 232.535C838.641 235.758 838.348 239.469 838.055 243.668C834.832 292.203 835.027 333.756 838.641 368.326C840.887 390.396 844.354 410.807 849.041 429.557L850.213 434.244C839.861 434.342 828.436 434.391 815.936 434.391H781.805L779.021 427.506ZM918.914 391.031C919.109 389.859 919.207 384.146 919.207 373.893C919.207 363.541 919.158 356.168 919.061 351.773C918.377 329.312 916.375 302.018 913.055 269.889C912.664 265.982 912.469 263.883 912.469 263.59L912.322 262.857H954.363H996.404L996.551 266.08C996.746 269.693 996.844 278.287 996.844 291.861C996.941 305.436 996.941 314.029 996.844 317.643C995.574 348.893 991.326 372.672 984.1 388.98L982.781 392.057H950.701H918.768L918.914 391.031ZM1131.26 441.422C1122.27 440.543 1114.36 438.395 1107.53 434.977C1101.77 432.145 1096.79 428.531 1092.59 424.137C1083.41 414.859 1077.79 402.555 1075.74 387.223C1074.96 380.387 1075.01 374.137 1075.89 368.473C1077.94 354.996 1084.04 344.449 1094.2 336.832C1103.77 329.801 1117.1 325.26 1134.19 323.209C1134.87 323.111 1135.65 323.014 1136.53 322.916C1137.51 322.721 1138.04 322.623 1138.14 322.623H1139.02V315.592V308.561H1118.22H1097.42V286.148V263.736H1118.22H1139.02V257.584V251.578H1118.22H1097.42V229.166V206.754H1118.22H1139.02V200.309V193.863H1174.47H1209.92V200.309V206.754H1222.22H1234.38V229.166V251.578H1222.22H1209.92V257.584V263.736H1222.22H1234.38V286.148V308.561H1222.22H1209.92V315.885V323.209L1213.29 323.502C1229.01 325.064 1241.17 327.311 1249.76 330.24L1251.52 330.826V361.441C1251.52 381.852 1251.42 392.057 1251.23 392.057C1251.13 392.057 1250.89 392.008 1250.5 391.91C1250.11 391.715 1249.57 391.52 1248.88 391.324C1248.2 391.129 1247.57 390.934 1246.98 390.738C1240.34 388.688 1231.4 386.734 1220.17 384.879C1219.39 384.781 1218.51 384.635 1217.54 384.439C1216.56 384.244 1215.78 384.098 1215.19 384C1214.61 383.902 1214.27 383.854 1214.17 383.854L1213.44 383.707V385.318C1213.44 391.373 1211.97 397.916 1209.04 404.947C1206.31 411.49 1202.3 417.301 1197.03 422.379C1186.68 432.438 1171.93 438.639 1152.79 440.982C1150.84 441.178 1147.18 441.324 1141.8 441.422C1136.53 441.52 1133.02 441.52 1131.26 441.422ZM1134.33 409.488C1138.14 408.121 1140.73 405.924 1142.1 402.896C1142.98 401.041 1143.37 397.281 1143.27 391.617L1143.12 384.879H1135.65C1131.45 384.879 1128.72 384.977 1127.45 385.172C1126.18 385.367 1124.81 385.855 1123.35 386.637C1118.86 389.078 1116.61 392.74 1116.61 397.623C1116.61 400.455 1117.59 403.043 1119.54 405.387C1121.49 407.73 1123.98 409.244 1127.01 409.928C1129.65 410.416 1132.09 410.27 1134.33 409.488ZM1495.65 426.627L1494.63 426.48L1494.77 410.367V394.254L1496.82 393.668C1505.81 391.324 1513.43 387.809 1519.68 383.121C1523 380.68 1525.88 377.799 1528.32 374.479C1534.96 365.689 1536.91 355.924 1534.18 345.182C1532.03 336.979 1527.68 329.752 1521.14 323.502C1513.13 315.787 1500.05 311.197 1481.88 309.732C1481.2 309.732 1480.47 309.684 1479.69 309.586C1478.9 309.488 1478.27 309.439 1477.78 309.439C1477.39 309.342 1477.15 309.293 1477.05 309.293H1476.61V322.623C1476.61 332.682 1476.17 341.227 1475.29 348.258C1471.97 374.137 1463.28 393.912 1449.22 407.584C1436.91 419.596 1420.99 425.895 1401.46 426.48C1390.62 426.773 1380.91 425.211 1372.31 421.793C1359.91 416.91 1350.14 408.902 1343.02 397.77C1335.98 386.539 1331.83 372.623 1330.56 356.021C1330.08 347.623 1330.22 338.932 1331 329.947C1332.66 312.76 1336.57 297.672 1342.72 284.684C1349.95 269.645 1360.2 257.291 1373.48 247.623C1386.77 237.955 1402.68 231.266 1421.24 227.555C1442.14 223.453 1463.28 223.307 1484.67 227.115C1509.96 231.803 1531.59 241.91 1549.56 257.438C1558.45 265.152 1565.92 273.844 1571.97 283.512C1578.03 293.18 1582.13 302.945 1584.28 312.809C1585.06 316.324 1585.5 320.377 1585.59 324.967C1585.89 330.729 1586.08 334.781 1586.18 337.125C1586.77 351.578 1585.2 364.273 1581.49 375.211C1579.25 381.559 1576.37 387.369 1572.85 392.643C1570.31 396.451 1566.94 400.455 1562.74 404.654C1556 411.393 1549.27 416.373 1542.53 419.596C1535.79 422.721 1527.29 424.918 1517.04 426.188C1514.89 426.48 1510.98 426.627 1505.32 426.627H1495.65ZM1395.16 359.684C1396.43 359.879 1398 359.684 1399.85 359.098C1401.71 358.512 1403.56 357.242 1405.42 355.289C1407.37 353.336 1408.93 351.041 1410.11 348.404C1413.23 341.275 1414.5 332.486 1413.91 322.037C1413.43 315.104 1412.99 311.344 1412.6 310.758C1412.4 310.562 1411.52 310.514 1409.96 310.611C1402.63 311.1 1396.68 312.906 1392.09 316.031C1389.16 318.082 1386.86 320.523 1385.2 323.355C1383.05 326.871 1381.79 331.217 1381.39 336.393C1381 341.178 1381.74 345.523 1383.59 349.43C1384.86 351.969 1386.38 354.117 1388.13 355.875C1390.28 358.023 1392.62 359.293 1395.16 359.684ZM1664.93 416.08V397.037L1668.74 396.891C1685.54 396.207 1699.3 393.082 1710.05 387.516C1731.63 376.383 1743.45 354.898 1745.5 323.062C1745.69 321.012 1745.79 317.887 1745.79 313.688C1745.79 309.391 1745.69 306.51 1745.5 305.045L1745.35 303.141H1705.21H1664.93V254.801V206.461H1754.14H1843.49L1843.79 211.148C1843.79 212.027 1843.84 213.639 1843.93 215.982C1844.13 218.229 1844.28 219.791 1844.37 220.67C1844.86 227.311 1845.15 235.465 1845.25 245.133C1845.84 283.805 1840.71 316.617 1829.87 343.57C1828.8 346.402 1828.26 347.965 1828.26 348.258C1828.46 351.383 1829.68 355.777 1831.92 361.441C1836.02 372.086 1842.47 380.484 1851.26 386.637C1860.05 392.691 1870.59 396.109 1882.9 396.891L1885.54 397.037V416.08V435.123H1880.85C1875.67 435.123 1869.86 434.635 1863.42 433.658C1834.8 429.654 1811.71 417.838 1794.13 398.209L1792.66 396.598L1790.32 398.502C1765.32 418.814 1731.73 430.729 1689.54 434.244C1682.02 434.83 1675.96 435.123 1671.38 435.123H1664.93V416.08ZM1975.12 421.939V408.756H1978.35C1983.04 408.756 1988.16 407.926 1993.73 406.266C1999.29 404.508 2003.84 402.359 2007.35 399.82C2014.48 394.742 2019.36 386.881 2022 376.236C2023.95 368.521 2024.93 357.438 2024.93 342.984V334.342H1994.46H1963.99V299.918V265.348H2065.8H2167.46V299.918V334.342H2133.47H2099.49V337.857C2099.49 350.357 2098.71 361.734 2097.15 371.988C2094.22 392.789 2087.04 407.73 2075.61 416.812C2067.51 423.355 2056.28 428.092 2041.92 431.021C2027.57 433.854 2008.28 435.27 1984.06 435.27H1975.12V421.939ZM1984.5 223.014V197.525H2065.95H2147.24V223.014V248.355H2065.95H1984.5V223.014ZM2246.06 304.605V263.004H2326.19H2406.17V304.605V346.061H2326.19H2246.06V304.605ZM2486.68 438.639L2484.77 438.492V403.922V369.352L2485.51 369.205C2485.6 369.205 2485.95 369.205 2486.53 369.205C2487.21 369.107 2488 369.059 2488.88 369.059C2489.85 369.059 2490.73 369.059 2491.51 369.059C2507.53 368.668 2523.69 366.812 2540 363.492C2556.31 360.172 2570.52 355.826 2582.62 350.455C2595.22 344.889 2605.72 337.76 2614.12 329.068C2620.96 322.037 2626.81 313.688 2631.7 304.02C2639.71 287.809 2644.64 268.082 2646.49 244.84C2646.69 242.301 2646.79 237.076 2646.79 229.166C2646.88 221.158 2646.83 215.689 2646.64 212.76L2646.49 209.684H2673.45H2700.25L2700.4 221.695C2700.5 229.215 2700.5 240.494 2700.4 255.533C2700.3 270.572 2700.2 279.41 2700.11 282.047C2699.32 294.156 2698.59 302.848 2697.91 308.121C2692.05 355.875 2676.72 389.518 2651.91 409.049C2644.98 414.42 2637.41 418.912 2629.21 422.525C2609.38 431.021 2575.3 436.295 2526.96 438.346C2524.23 438.443 2517.2 438.541 2505.87 438.639C2494.64 438.736 2488.24 438.736 2486.68 438.639ZM2532.38 334.781L2484.77 329.215V305.484V281.9H2485.36C2485.95 281.9 2501.86 283.756 2533.11 287.467C2563.58 291.08 2579.35 292.887 2580.43 292.887C2580.62 292.887 2580.72 300.846 2580.72 316.764V340.494H2580.28C2580.18 340.494 2578.08 340.25 2573.98 339.762C2569.98 339.273 2563.88 338.541 2555.67 337.564C2547.47 336.588 2539.71 335.66 2532.38 334.781ZM2533.11 268.57C2502.55 264.957 2486.92 263.102 2486.24 263.004L2484.77 262.857V239.127V215.396L2485.8 215.543C2486.48 215.738 2502.3 217.594 2533.26 221.109C2540.68 221.988 2548.35 222.916 2556.26 223.893C2564.17 224.771 2570.12 225.455 2574.13 225.943C2578.13 226.432 2580.18 226.676 2580.28 226.676H2580.72V250.406V273.99H2579.7C2579.5 273.99 2563.97 272.184 2533.11 268.57ZM2620.86 166.031V133.219H2639.46H2658.06V166.031V198.844H2639.46H2620.86V166.031ZM2668.17 166.031V133.219H2686.63H2705.09V166.031V198.844H2686.63H2668.17V166.031Z" fill="black"/>
</svg>
