<svg width="759" height="324" viewBox="0 0 759 324" fill="none" xmlns="http://www.w3.org/2000/svg">
<rect x="134" y="16" width="500" height="250" fill="#1D2C28"/>
<path d="M134 16C117.585 16 101.33 19.2332 86.1646 25.5151C70.9989 31.7969 57.219 41.0043 45.6116 52.6116C34.0043 64.219 24.7969 77.9989 18.5151 93.1646C12.2332 108.33 9 124.585 9 141C9 157.415 12.2332 173.67 18.5151 188.835C24.7969 204.001 34.0043 217.781 45.6117 229.388C57.219 240.996 70.9989 250.203 86.1646 256.485C101.33 262.767 117.585 266 134 266L194 141L134 16Z" fill="#1D2C28"/>
<path d="M634 266C650.415 266 666.67 262.767 681.835 256.485C697.001 250.203 710.781 240.996 722.388 229.388C733.996 217.781 743.203 204.001 749.485 188.835C755.767 173.67 759 157.415 759 141C759 124.585 755.767 108.33 749.485 93.1646C743.203 77.9989 733.996 64.219 722.388 52.6116C710.781 41.0043 697.001 31.7969 681.835 25.5151C666.67 19.2332 650.415 16 634 16L548.5 141L634 266Z" fill="#1D2C28"/>
<ellipse cx="64.3503" cy="104.958" rx="51.5" ry="39.5" transform="rotate(-30 64.3503 104.958)" fill="#151F1C"/>
<ellipse cx="609.35" cy="205.958" rx="51.5" ry="39.5" transform="rotate(-30 609.35 205.958)" fill="#151F1C"/>
<ellipse cx="690.777" cy="99.8574" rx="34.2349" ry="26.2579" transform="rotate(-30 690.777 99.8574)" fill="#151F1C"/>
<ellipse cx="444.35" cy="59.958" rx="51.5" ry="39.5" transform="rotate(-30 444.35 59.958)" fill="#151F1C"/>
<ellipse cx="246.591" cy="193.545" rx="92.8076" ry="54.4341" transform="rotate(-30 246.591 193.545)" fill="#151F1C"/>
<ellipse cx="641" cy="283.5" rx="24" ry="40.5" fill="#1D2C28"/>
<ellipse cx="595.5" cy="277" rx="13.5" ry="20" fill="#1D2C28"/>
<path d="M229.02 186.061L229.069 181.764L230.094 181.373C236.702 179.029 242.643 175.562 247.917 170.973C249.512 169.573 251.123 167.945 252.751 166.09C259.033 158.863 263.184 150.481 265.202 140.943L265.251 140.699H258.219H251.237L249.089 148.023L246.989 155.299H235.417C227.669 155.299 223.796 155.266 223.796 155.201C223.796 155.169 225.781 148.284 229.753 134.547L235.71 113.99L265.69 113.941C285.645 113.941 295.622 113.974 295.622 114.039C295.622 114.137 294.906 118.564 293.473 127.32C292.074 136.044 291.341 140.536 291.276 140.797C291.276 140.862 291.227 141.09 291.13 141.48C291.064 141.839 290.967 142.327 290.837 142.945C290.739 143.531 290.641 144.085 290.544 144.605C289.079 152.646 287.435 158.554 285.612 162.33C284.798 163.99 283.577 165.976 281.95 168.287C280.355 170.598 278.744 172.665 277.116 174.488C275.553 176.279 273.958 177.841 272.331 179.176C268.294 182.561 263.77 185.133 258.757 186.891C253.744 188.648 247.803 189.739 240.934 190.162C238.265 190.325 235.433 190.406 232.438 190.406H229.02V186.061ZM311.823 174.098V159.889H322.174H332.526V151.93V143.922H325.397H318.317V129.713V115.504H345.417H372.516V129.713V143.922H365.436H358.307V151.93V159.889H368.659H379.01V174.098V188.258H345.417H311.823V174.098ZM394.186 184.693V178.346L395.456 178.297C401.055 178.069 405.645 177.027 409.225 175.172C416.419 171.461 420.358 164.299 421.042 153.688C421.107 153.004 421.139 151.962 421.139 150.562C421.139 149.13 421.107 148.17 421.042 147.682L420.993 147.047H407.614H394.186V130.934V114.82H423.923H453.708L453.805 116.383C453.805 116.676 453.822 117.213 453.854 117.994C453.919 118.743 453.968 119.264 454.001 119.557C454.163 121.77 454.261 124.488 454.294 127.711C454.489 140.602 452.78 151.539 449.167 160.523C448.809 161.467 448.63 161.988 448.63 162.086C448.695 163.128 449.102 164.592 449.85 166.48C451.217 170.029 453.366 172.828 456.296 174.879C459.225 176.897 462.741 178.036 466.842 178.297L467.721 178.346V184.693V191.041H466.159C464.434 191.041 462.497 190.878 460.348 190.553C450.811 189.218 443.112 185.279 437.253 178.736L436.764 178.199L435.983 178.834C427.65 185.605 416.452 189.576 402.389 190.748C399.883 190.943 397.865 191.041 396.335 191.041H394.186V184.693ZM483.874 151.93V113.062H497.546H511.266V124.098V135.084L525.671 142.164C532.409 145.484 536.494 147.503 537.926 148.219C539.391 148.935 540.107 149.326 540.075 149.391C540.042 149.521 538.431 153.492 535.241 161.305C532.051 169.085 530.439 172.975 530.407 172.975C530.309 172.975 527.119 171.477 520.837 168.482L511.315 163.99C511.283 168.027 511.266 172.503 511.266 177.418V190.797H497.546H483.874V151.93Z" fill="#4ED3B0"/>
<path d="M225.805 183.061L225.854 178.764L226.879 178.373C233.488 176.029 239.428 172.562 244.702 167.973C246.297 166.573 247.908 164.945 249.536 163.09C255.818 155.863 259.969 147.481 261.987 137.943L262.036 137.699H255.004H248.022L245.874 145.023L243.774 152.299H232.202C224.454 152.299 220.581 152.266 220.581 152.201C220.581 152.169 222.566 145.284 226.538 131.547L232.495 110.99L262.475 110.941C282.43 110.941 292.407 110.974 292.407 111.039C292.407 111.137 291.691 115.564 290.258 124.32C288.859 133.044 288.126 137.536 288.061 137.797C288.061 137.862 288.012 138.09 287.915 138.48C287.849 138.839 287.752 139.327 287.622 139.945C287.524 140.531 287.426 141.085 287.329 141.605C285.864 149.646 284.22 155.554 282.397 159.33C281.583 160.99 280.363 162.976 278.735 165.287C277.14 167.598 275.529 169.665 273.901 171.488C272.338 173.279 270.743 174.841 269.116 176.176C265.079 179.561 260.555 182.133 255.542 183.891C250.529 185.648 244.588 186.739 237.719 187.162C235.05 187.325 232.218 187.406 229.223 187.406H225.805V183.061ZM308.608 171.098V156.889H318.96H329.311V148.93V140.922H322.182H315.102V126.713V112.504H342.202H369.301V126.713V140.922H362.221H355.092V148.93V156.889H365.444H375.795V171.098V185.258H342.202H308.608V171.098ZM390.971 181.693V175.346L392.241 175.297C397.84 175.069 402.43 174.027 406.01 172.172C413.204 168.461 417.143 161.299 417.827 150.688C417.892 150.004 417.924 148.962 417.924 147.562C417.924 146.13 417.892 145.17 417.827 144.682L417.778 144.047H404.399H390.971V127.934V111.82H420.708H450.493L450.59 113.383C450.59 113.676 450.607 114.213 450.639 114.994C450.704 115.743 450.753 116.264 450.786 116.557C450.948 118.77 451.046 121.488 451.079 124.711C451.274 137.602 449.565 148.539 445.952 157.523C445.594 158.467 445.415 158.988 445.415 159.086C445.48 160.128 445.887 161.592 446.635 163.48C448.002 167.029 450.151 169.828 453.081 171.879C456.01 173.897 459.526 175.036 463.627 175.297L464.506 175.346V181.693V188.041H462.944C461.219 188.041 459.282 187.878 457.133 187.553C447.596 186.218 439.897 182.279 434.038 175.736L433.549 175.199L432.768 175.834C424.435 182.605 413.237 186.576 399.174 187.748C396.668 187.943 394.65 188.041 393.12 188.041H390.971V181.693ZM480.659 148.93V110.062H494.331H508.051V121.098V132.084L522.456 139.164C529.194 142.484 533.279 144.503 534.711 145.219C536.176 145.935 536.892 146.326 536.86 146.391C536.827 146.521 535.216 150.492 532.026 158.305C528.836 166.085 527.225 169.975 527.192 169.975C527.094 169.975 523.904 168.477 517.622 165.482L508.1 160.99C508.068 165.027 508.051 169.503 508.051 174.418V187.797H494.331H480.659V148.93Z" fill="white"/>
</svg>
