<svg width="759" height="324" viewBox="0 0 759 324" fill="none" xmlns="http://www.w3.org/2000/svg">
<rect x="134" y="16" width="500" height="250" fill="#1D2C28"/>
<path d="M134 16C117.585 16 101.33 19.2332 86.1646 25.5151C70.9989 31.7969 57.219 41.0043 45.6116 52.6116C34.0043 64.219 24.7969 77.9989 18.5151 93.1646C12.2332 108.33 9 124.585 9 141C9 157.415 12.2332 173.67 18.5151 188.835C24.7969 204.001 34.0043 217.781 45.6117 229.388C57.219 240.996 70.9989 250.203 86.1646 256.485C101.33 262.767 117.585 266 134 266L216 141L134 16Z" fill="#1D2C28"/>
<path d="M634 266C650.415 266 666.67 262.767 681.835 256.485C697.001 250.203 710.781 240.996 722.388 229.388C733.996 217.781 743.203 204.001 749.485 188.835C755.767 173.67 759 157.415 759 141C759 124.585 755.767 108.33 749.485 93.1646C743.203 77.9989 733.996 64.219 722.388 52.6116C710.781 41.0043 697.001 31.7969 681.835 25.5151C666.67 19.2332 650.415 16 634 16L553.5 141L634 266Z" fill="#1D2C28"/>
<ellipse cx="64.3503" cy="104.958" rx="51.5" ry="39.5" transform="rotate(-30 64.3503 104.958)" fill="#151F1C"/>
<ellipse cx="609.35" cy="205.958" rx="51.5" ry="39.5" transform="rotate(-30 609.35 205.958)" fill="#151F1C"/>
<ellipse cx="690.777" cy="99.8574" rx="34.2349" ry="26.2579" transform="rotate(-30 690.777 99.8574)" fill="#151F1C"/>
<ellipse cx="444.35" cy="59.958" rx="51.5" ry="39.5" transform="rotate(-30 444.35 59.958)" fill="#151F1C"/>
<ellipse cx="246.591" cy="193.545" rx="92.8076" ry="54.4341" transform="rotate(-30 246.591 193.545)" fill="#151F1C"/>
<ellipse cx="641" cy="283.5" rx="24" ry="40.5" fill="#1D2C28"/>
<ellipse cx="595.5" cy="277" rx="13.5" ry="20" fill="#1D2C28"/>
<path d="M193.112 187.867C192.819 187.411 192.477 186.907 192.087 186.354C191.729 185.8 191.468 185.393 191.306 185.133L191.013 184.693C191.013 184.661 191.517 184.14 192.526 183.131C193.828 181.861 195.033 180.51 196.14 179.078C200.078 173.935 202.503 167.294 203.415 159.156C203.773 155.836 203.936 150.888 203.903 144.312V128.688L203.952 118.775H215.231H226.511L226.462 133.229C226.462 141.92 226.413 147.34 226.315 149.488C226.022 155.836 225.583 160.768 224.997 164.283C224.509 167.213 223.906 169.589 223.19 171.412C222.507 173.202 221.546 174.879 220.309 176.441C219.235 177.776 218.047 179.013 216.745 180.152C212.058 184.189 205.515 187.623 197.116 190.455C196.042 190.813 195.456 190.992 195.358 190.992C195.228 190.992 194.479 189.951 193.112 187.867ZM233.395 152.76V118.775H244.528H255.612V140.211V161.695H256.345C258.005 161.695 259.453 161.598 260.69 161.402C263.425 161.044 265.459 160.198 266.794 158.863C267.347 158.277 267.852 157.545 268.308 156.666C269.219 154.778 269.756 152.467 269.919 149.732L269.968 148.902L270.7 148.951C270.961 148.984 272.197 149 274.411 149H277.39V153.004C277.39 157.366 277.243 160.849 276.95 163.453C276.136 170.419 273.988 175.693 270.505 179.273C266.468 183.473 259.877 185.898 250.729 186.549C248.809 186.679 244.951 186.744 239.157 186.744H233.395V152.76ZM293.591 147.535V133.668H320.3H346.96V147.535V161.354H320.3H293.591V147.535ZM363.161 151.637V112.135H376.882H390.602V137.135V162.086H391.384C397.829 161.826 402.842 160.589 406.423 158.375C409.776 156.324 412.152 153.297 413.552 149.293L413.796 148.609H417.995C420.957 148.609 422.52 148.593 422.683 148.561L423.171 148.512V152.418C423.171 155.543 423.073 158.131 422.878 160.182C421.706 171.64 416.839 179.924 408.278 185.035C403.363 187.997 397.259 189.869 389.968 190.65C386.973 190.976 381.293 191.139 372.927 191.139H363.161V151.637ZM452.897 187.525V183.57L453.874 183.521C458.138 183.326 462.256 181.829 466.227 179.029C468.115 177.695 469.824 176.148 471.354 174.391C474.642 170.615 476.953 166.057 478.288 160.719C479.46 156.096 479.818 150.693 479.362 144.508C479.167 141.48 479.004 139.365 478.874 138.16L478.825 137.623H490.007H501.237V140.504C501.237 143.466 501.14 146.559 500.944 149.781C500.488 157.724 499.463 164.202 497.868 169.215C496.273 174.228 493.913 178.346 490.788 181.568C489.193 183.196 487.419 184.661 485.466 185.963C481.071 188.893 475.863 190.634 469.841 191.188C467.822 191.383 464.291 191.48 459.245 191.48H452.897V187.525ZM440.397 162.086C440.397 161.956 440.218 158.033 439.86 150.318C439.795 148.593 439.714 146.705 439.616 144.654C439.518 142.571 439.437 140.992 439.372 139.918C439.339 138.844 439.323 138.258 439.323 138.16L439.274 137.477H446.989H454.655L454.704 138.258C454.704 138.388 454.72 138.99 454.753 140.064C454.818 141.106 454.899 142.636 454.997 144.654C455.095 146.673 455.176 148.528 455.241 150.221C455.599 157.74 455.778 161.63 455.778 161.891L455.827 162.428H448.161H440.446L440.397 162.086ZM459.391 162.037C459.391 161.842 459.212 157.773 458.854 149.83C458.496 141.887 458.317 137.851 458.317 137.721V137.477H465.983H473.698V137.721C473.698 137.818 473.877 141.871 474.235 149.879C474.593 157.887 474.772 161.956 474.772 162.086V162.428H467.058H459.391V162.037ZM517.341 151.93V113.062H531.013H544.733V124.098V135.084L559.138 142.164C565.876 145.484 569.961 147.503 571.393 148.219C572.858 148.935 573.574 149.326 573.542 149.391C573.509 149.521 571.898 153.492 568.708 161.305C565.518 169.085 563.906 172.975 563.874 172.975C563.776 172.975 560.586 171.477 554.304 168.482L544.782 163.99C544.75 168.027 544.733 172.503 544.733 177.418V190.797H531.013H517.341V151.93Z" fill="#4ED3B0"/>
<path d="M187.845 184.867C187.552 184.411 187.21 183.907 186.82 183.354C186.462 182.8 186.201 182.393 186.038 182.133L185.746 181.693C185.746 181.661 186.25 181.14 187.259 180.131C188.561 178.861 189.766 177.51 190.872 176.078C194.811 170.935 197.236 164.294 198.148 156.156C198.506 152.836 198.669 147.888 198.636 141.312V125.688L198.685 115.775H209.964H221.244L221.195 130.229C221.195 138.92 221.146 144.34 221.048 146.488C220.755 152.836 220.316 157.768 219.73 161.283C219.242 164.213 218.639 166.589 217.923 168.412C217.24 170.202 216.279 171.879 215.042 173.441C213.968 174.776 212.78 176.013 211.478 177.152C206.79 181.189 200.247 184.623 191.849 187.455C190.775 187.813 190.189 187.992 190.091 187.992C189.961 187.992 189.212 186.951 187.845 184.867ZM228.128 149.76V115.775H239.261H250.345V137.211V158.695H251.078C252.738 158.695 254.186 158.598 255.423 158.402C258.158 158.044 260.192 157.198 261.527 155.863C262.08 155.277 262.585 154.545 263.04 153.666C263.952 151.778 264.489 149.467 264.652 146.732L264.701 145.902L265.433 145.951C265.693 145.984 266.93 146 269.144 146H272.122V150.004C272.122 154.366 271.976 157.849 271.683 160.453C270.869 167.419 268.721 172.693 265.238 176.273C261.201 180.473 254.609 182.898 245.462 183.549C243.542 183.679 239.684 183.744 233.89 183.744H228.128V149.76ZM288.324 144.535V130.668H315.033H341.693V144.535V158.354H315.033H288.324V144.535ZM357.894 148.637V109.135H371.615H385.335V134.135V159.086H386.117C392.562 158.826 397.575 157.589 401.156 155.375C404.509 153.324 406.885 150.297 408.285 146.293L408.529 145.609H412.728C415.69 145.609 417.253 145.593 417.415 145.561L417.904 145.512V149.418C417.904 152.543 417.806 155.131 417.611 157.182C416.439 168.64 411.572 176.924 403.011 182.035C398.096 184.997 391.992 186.869 384.701 187.65C381.706 187.976 376.025 188.139 367.66 188.139H357.894V148.637ZM447.63 184.525V180.57L448.607 180.521C452.871 180.326 456.989 178.829 460.96 176.029C462.848 174.695 464.557 173.148 466.087 171.391C469.375 167.615 471.686 163.057 473.021 157.719C474.193 153.096 474.551 147.693 474.095 141.508C473.9 138.48 473.737 136.365 473.607 135.16L473.558 134.623H484.74H495.97V137.504C495.97 140.466 495.872 143.559 495.677 146.781C495.221 154.724 494.196 161.202 492.601 166.215C491.006 171.228 488.646 175.346 485.521 178.568C483.926 180.196 482.152 181.661 480.199 182.963C475.804 185.893 470.596 187.634 464.574 188.188C462.555 188.383 459.024 188.48 453.978 188.48H447.63V184.525ZM435.13 159.086C435.13 158.956 434.951 155.033 434.593 147.318C434.528 145.593 434.447 143.705 434.349 141.654C434.251 139.571 434.17 137.992 434.105 136.918C434.072 135.844 434.056 135.258 434.056 135.16L434.007 134.477H441.722H449.388L449.437 135.258C449.437 135.388 449.453 135.99 449.486 137.064C449.551 138.106 449.632 139.636 449.73 141.654C449.828 143.673 449.909 145.528 449.974 147.221C450.332 154.74 450.511 158.63 450.511 158.891L450.56 159.428H442.894H435.179L435.13 159.086ZM454.124 159.037C454.124 158.842 453.945 154.773 453.587 146.83C453.229 138.887 453.05 134.851 453.05 134.721V134.477H460.716H468.431V134.721C468.431 134.818 468.61 138.871 468.968 146.879C469.326 154.887 469.505 158.956 469.505 159.086V159.428H461.79H454.124V159.037ZM512.074 148.93V110.062H525.746H539.466V121.098V132.084L553.871 139.164C560.609 142.484 564.694 144.503 566.126 145.219C567.591 145.935 568.307 146.326 568.275 146.391C568.242 146.521 566.631 150.492 563.441 158.305C560.251 166.085 558.639 169.975 558.607 169.975C558.509 169.975 555.319 168.477 549.037 165.482L539.515 160.99C539.482 165.027 539.466 169.503 539.466 174.418V187.797H525.746H512.074V148.93Z" fill="white"/>
</svg>
