<svg width="3257" height="589" viewBox="0 0 3257 589" fill="none" xmlns="http://www.w3.org/2000/svg">
<g clip-path="url(#clip0_3_31)">
<path d="M468.74 334L439.24 364L178.24 114L154.24 138L214.24 197.5L204.74 207L144.74 147.5L120.24 171.5L180.24 231.5L170.74 241L110.74 181.5L87.2402 205L337.24 466L307.24 496L466.24 493L468.74 334ZM290.74 202L392.74 300L439.24 255.5L468.74 285.5L466.24 126.5L307.24 124L337.24 154L290.74 202ZM270.74 418L177.24 320.5L87.2402 414.5L110.74 438.5L170.74 378.5L180.24 388L120.24 448L144.74 472.5L204.74 412.5L214.24 422L154.24 482L178.24 506L270.74 418Z" fill="black"/>
<path d="M943.59 201.75C887.24 181.45 774.89 193 774.89 272.8C774.89 379.55 854.69 326 854.69 370.45C854.69 387.95 815.84 387.95 774.89 377.1V414.9C812.34 438.7 943.59 432.4 943.59 370.45C943.59 313.05 899.14 336.15 899.14 299.4C899.14 283.3 927.84 287.15 943.59 290.65V201.75ZM996.101 424H1083.95L1090.25 400.2H1147.3L1154.3 424H1209.6L1137.5 196.5H1061.2L996.101 424ZM1100.75 360.65L1118.25 296.6L1136.1 360.65H1100.75ZM1262.22 196.5V424H1388.92V338.95C1376.32 338.95 1363.72 339.3 1351.82 340.35L1349.02 196.5H1262.22ZM1444.8 424H1524.6V366.6L1549.45 424H1614.55L1634.5 371.5V424H1711.85V196.5H1629.6C1612.1 243.05 1596 292.75 1579.55 341.75C1563.8 293.45 1548.75 244.8 1529.5 196.5H1449.7L1444.8 424ZM1873.74 193C1819.49 193 1774.69 228.35 1774.69 311.3C1774.69 387.95 1806.19 427.85 1873.74 427.85C1925.89 427.85 1966.14 396.35 1966.14 311.3C1966.14 231.85 1927.99 193 1873.74 193ZM1888.09 311.3C1903.14 311.3 1914.34 321.1 1914.34 337.2C1914.34 349.45 1905.24 363.45 1888.09 363.45C1873.04 363.45 1862.19 354.7 1862.19 337.2C1862.19 322.15 1875.49 311.3 1888.09 311.3ZM2029.28 424H2109.78V355.05L2159.48 424H2240.68V196.5H2159.48V276.3L2112.93 196.5H2029.28V424ZM2485.86 424H2571.26V368.35C2580.01 369.05 2589.46 368.7 2598.91 368L2621.31 424H2685.36L2648.96 356.1C2674.16 344.2 2692.71 323.2 2692.71 288.55C2692.71 181.1 2602.06 191.25 2485.86 197.55V424ZM2571.26 341.05V284.7C2578.96 282.6 2585.26 281.55 2592.96 281.55C2614.31 281.55 2621.31 295.55 2621.31 309.9C2621.31 334.05 2596.11 342.8 2571.26 341.05ZM2758.82 196.5C2754.27 246.55 2752.17 290.65 2752.17 347.7C2752.17 391.45 2779.12 427.5 2859.62 427.5C2922.27 427.5 2953.07 386.9 2953.07 327.05C2953.07 277.35 2950.62 237.45 2949.57 196.5H2887.27V288.9C2887.27 301.85 2878.17 311.3 2869.07 311.3C2860.67 311.3 2852.62 303.25 2852.62 281.9V196.5H2758.82ZM3019.67 424H3100.17V355.05L3149.87 424H3231.07V196.5H3149.87V276.3L3103.32 196.5H3019.67V424Z" fill="black"/>
</g>
<defs>
<clipPath id="clip0_3_31">
<rect width="3257" height="589" fill="white"/>
</clipPath>
</defs>
</svg>
