<svg width="1055" height="949" viewBox="0 0 1055 949" fill="none" xmlns="http://www.w3.org/2000/svg">
<ellipse cx="535" cy="480.5" rx="520" ry="468.5" fill="#7F228E"/>
<ellipse cx="518.5" cy="467.5" rx="518.5" ry="467.5" fill="#EB73FF"/>
<ellipse cx="742.011" cy="704.287" rx="216.702" ry="138.524" transform="rotate(-20 742.011 704.287)" fill="#E757FF"/>
<ellipse cx="132.004" cy="499.644" rx="89.7885" ry="57.3964" transform="rotate(-20 132.004 499.644)" fill="#E757FF"/>
<ellipse cx="293.096" cy="217.01" rx="195.192" ry="124.775" transform="rotate(-20 293.096 217.01)" fill="#E757FF"/>
<ellipse cx="360.683" cy="731.474" rx="107.64" ry="68.8081" transform="rotate(-20 360.683 731.474)" fill="#E757FF"/>
<ellipse cx="780.34" cy="290.468" rx="161.734" ry="103.387" transform="rotate(-20 780.34 290.468)" fill="#E757FF"/>
<path d="M311.652 463.105C296.874 462.389 284.406 460.176 274.25 456.465C269.172 454.642 264.549 451.647 260.383 447.48C252.115 439.212 247.199 428.535 245.637 415.449C245.507 414.342 245.441 412.194 245.441 409.004C245.441 405.814 245.507 403.698 245.637 402.656C245.702 402.07 245.897 400.801 246.223 398.848C248.046 388.236 252.635 378.6 259.992 369.941C260.773 368.965 261.164 368.411 261.164 368.281C261.164 368.216 257.193 363.268 249.25 353.438C241.242 343.542 237.238 338.529 237.238 338.398C237.173 338.268 243.716 333.288 256.867 323.457C270.083 313.561 276.789 308.613 276.984 308.613C277.115 308.613 280.793 314.147 288.02 325.215C295.181 336.217 298.827 341.719 298.957 341.719C299.022 341.719 299.901 341.361 301.594 340.645C311.88 336.217 324.283 333.385 338.801 332.148C340.233 332.018 343.293 331.953 347.98 331.953L355.012 331.855V359.59V387.324H350.91C338.605 387.389 328.579 389.961 320.832 395.039C313.996 399.531 309.732 405.358 308.039 412.52C307.388 415.189 307.258 417.728 307.648 420.137C308.234 424.108 310.22 427.819 313.605 431.27C319.595 437.454 328.579 441.198 340.559 442.5C341.6 442.63 343.716 442.695 346.906 442.695C350.096 442.695 352.31 442.663 353.547 442.598L355.012 442.5V451.582C355.012 457.572 354.947 460.599 354.816 460.664C354.751 460.664 354.589 460.697 354.328 460.762C354.068 460.827 353.677 460.892 353.156 460.957C352.701 461.022 352.245 461.087 351.789 461.152C345.344 462.064 338.215 462.715 330.402 463.105C328.514 463.171 325.357 463.203 320.93 463.203C316.568 463.203 313.475 463.171 311.652 463.105ZM421.145 455.781V448.652L423.098 448.555C429.478 448.164 434.882 446.504 439.309 443.574C442.108 441.686 444.387 439.473 446.145 436.934C449.595 432.051 451.581 426.191 452.102 419.355C452.622 412.52 450.637 406.823 446.145 402.266C442.043 398.034 436.151 395.299 428.469 394.062C427.102 393.867 421.665 393.77 412.16 393.77L397.316 393.672V367.207V340.84H435.598H473.879L475.832 341.23C480.78 342.012 485.24 343.704 489.211 346.309C491.685 348.001 494.224 350.182 496.828 352.852C501.19 357.344 504.641 361.966 507.18 366.719C510.826 373.685 513.039 381.4 513.82 389.863C514.602 398.262 513.853 406.432 511.574 414.375C507.277 429.284 498.586 441.035 485.5 449.629C473.651 457.376 459.133 461.771 441.945 462.812C441.034 462.878 437.16 462.91 430.324 462.91H421.145V455.781ZM411.477 312.129V292.305H445.461H479.445V312.129V331.855H445.461H411.477V312.129ZM611.008 458.809C604.888 458.613 599.68 457.962 595.383 456.855C588.352 455.033 582.004 452.266 576.34 448.555C570.741 444.844 566.314 440.482 563.059 435.469C559.738 430.456 557.622 424.759 556.711 418.379C556.516 417.077 556.418 414.928 556.418 411.934C556.418 408.874 556.516 406.595 556.711 405.098C557.753 397.415 560.064 389.473 563.645 381.27L564.621 379.121H574.68C581.385 379.121 584.738 379.219 584.738 379.414C584.673 379.479 584.576 380.033 584.445 381.074C583.99 383.418 584.087 385.762 584.738 388.105C585.52 390.579 586.854 392.728 588.742 394.551C593.82 399.629 603.033 402.819 616.379 404.121C618.267 404.251 621.392 404.349 625.754 404.414C630.116 404.414 633.339 404.349 635.422 404.219C646.164 403.372 655.995 401.875 664.914 399.727C666.086 399.401 666.802 399.238 667.062 399.238C667.193 399.238 667.258 408.32 667.258 426.484C667.258 444.648 667.225 453.73 667.16 453.73L666.672 453.828C666.346 453.893 665.891 453.991 665.305 454.121C664.719 454.251 664.165 454.382 663.645 454.512C654.465 456.53 644.439 457.897 633.566 458.613C626.665 459.004 619.146 459.069 611.008 458.809ZM572.238 334.883V306.367H617.453H662.668V334.883V363.398H617.453H572.238V334.883ZM733.488 455.781V448.652L735.441 448.555C741.822 448.164 747.225 446.504 751.652 443.574C754.452 441.686 756.73 439.473 758.488 436.934C761.939 432.051 763.924 426.191 764.445 419.355C764.966 412.52 762.98 406.823 758.488 402.266C754.387 398.034 748.495 395.299 740.812 394.062C739.445 393.867 734.009 393.77 724.504 393.77L709.66 393.672V367.207V340.84H747.941H786.223L788.176 341.23C793.124 342.012 797.583 343.704 801.555 346.309C804.029 348.001 806.568 350.182 809.172 352.852C813.534 357.344 816.984 361.966 819.523 366.719C823.169 373.685 825.383 381.4 826.164 389.863C826.945 398.262 826.197 406.432 823.918 414.375C819.621 429.284 810.93 441.035 797.844 449.629C785.995 457.376 771.477 461.771 754.289 462.812C753.378 462.878 749.504 462.91 742.668 462.91H733.488V455.781ZM723.82 312.129V292.305H757.805H791.789V312.129V331.855H757.805H723.82V312.129ZM422.805 717.91C419.81 717.715 416.978 717.422 414.309 717.031C409.035 716.185 404.999 714.883 402.199 713.125L401.516 712.734V704.531V696.328L402.688 696.523C406.919 697.174 410.923 697.337 414.699 697.012C420.428 696.426 424.855 694.603 427.98 691.543C429.348 690.176 430.357 688.809 431.008 687.441C431.659 686.009 431.984 684.935 431.984 684.219C431.984 684.089 430.52 683.991 427.59 683.926C421.926 683.861 416.783 683.079 412.16 681.582C399.53 677.415 392.629 669.082 391.457 656.582C391.327 655.215 391.294 653.164 391.359 650.43C391.424 647.63 391.555 645.84 391.75 645.059C392.987 639.785 395.819 634.935 400.246 630.508C407.017 623.737 415.546 619.798 425.832 618.691L427.688 618.496V617.129V615.762H404.445H381.203V593.984V572.109H408.742L436.184 572.012L436.281 566.836V561.66H460.012H483.645L483.742 566.836V572.012L499.074 572.109H514.406V593.984V615.762H501.223H487.941V616.445C487.941 616.51 487.941 616.901 487.941 617.617C488.007 618.268 488.072 619.18 488.137 620.352C488.202 621.458 488.234 622.533 488.234 623.574C488.82 639.46 488.788 651.471 488.137 659.609C487.16 673.411 484.523 684.512 480.227 692.91C475.995 701.243 469.777 707.559 461.574 711.855C455.91 714.785 448.911 716.738 440.578 717.715C439.341 717.845 436.444 717.943 431.887 718.008C427.329 718.073 424.302 718.04 422.805 717.91ZM441.457 662.539C443.475 661.888 444.875 660.488 445.656 658.34C446.503 656.126 446.438 654.01 445.461 651.992C444.68 650.234 443.28 648.997 441.262 648.281C440.741 648.086 439.829 647.988 438.527 647.988C437.225 647.988 436.314 648.086 435.793 648.281C432.342 649.518 430.617 651.927 430.617 655.508C430.617 657.201 431.105 658.698 432.082 660C433.059 661.302 434.361 662.181 435.988 662.637C436.574 662.767 437.486 662.832 438.723 662.832C439.96 662.832 440.871 662.734 441.457 662.539ZM598.215 720.547C595.22 720.286 592.714 719.961 590.695 719.57L586.594 718.887C577.479 717.65 570.578 713.581 565.891 706.68C561.724 700.625 560.487 693.301 562.18 684.707C563.221 679.564 565.5 675.234 569.016 671.719C574.029 666.706 581.027 663.809 590.012 663.027C595.09 662.572 599.419 663.223 603 664.98C606.06 666.478 608.729 668.496 611.008 671.035C613.352 673.574 615.012 676.341 615.988 679.336C617.616 684.479 617.388 689.557 615.305 694.57L614.621 696.035L615.793 695.645C618.983 694.473 621.75 692.78 624.094 690.566C627.674 687.051 629.465 682.396 629.465 676.602C629.465 671.914 628.781 668.203 627.414 665.469C626.503 663.581 625.168 661.823 623.41 660.195C620.155 657.07 615.76 654.792 610.227 653.359C605.995 652.318 601.6 651.797 597.043 651.797C590.467 651.797 583.436 652.839 575.949 654.922C570.546 656.354 565.207 658.275 559.934 660.684L558.371 661.367C557.264 635.651 556.711 622.5 556.711 621.914C556.711 621.784 556.776 621.719 556.906 621.719C557.102 621.719 557.199 621.654 557.199 621.523C557.199 621.458 566.021 617.227 583.664 608.828C587.961 606.81 592.323 604.759 596.75 602.676C601.242 600.527 604.66 598.9 607.004 597.793L610.52 596.133C610.78 596.003 610.78 595.938 610.52 595.938C610.324 595.938 610.031 595.938 609.641 595.938C596.88 596.849 582.98 597.305 567.941 597.305H561.496V580.41V563.613H610.617H659.738V580.508L659.641 597.402L634.934 604.727L610.129 612.148L615.793 612.246C624.582 612.441 632.395 613.353 639.23 614.98C649.191 617.454 657.622 621.458 664.523 626.992C666.932 628.945 669.406 631.484 671.945 634.609C677.674 641.836 681.223 649.811 682.59 658.535C683.241 662.767 683.176 668.138 682.395 674.648C681.027 685.391 677.512 694.147 671.848 700.918C666.249 707.689 658.241 712.767 647.824 716.152C643.072 717.78 637.18 719.115 630.148 720.156L626.926 720.645H613.352C603.846 720.645 598.801 720.612 598.215 720.547ZM597.043 701.992C598.801 701.146 599.842 700.495 600.168 700.039C601.665 698.086 602.349 695.905 602.219 693.496C602.154 691.087 601.307 689.004 599.68 687.246C598.638 686.139 597.434 685.358 596.066 684.902C595.35 684.642 594.243 684.512 592.746 684.512C591.118 684.512 590.012 684.609 589.426 684.805C585.259 686.042 583.013 688.874 582.688 693.301C582.492 696.165 583.404 698.607 585.422 700.625C587.115 702.318 589.458 703.164 592.453 703.164H594.699L597.043 701.992Z" fill="#B04699"/>
<path d="M304.652 458.105C289.874 457.389 277.406 455.176 267.25 451.465C262.172 449.642 257.549 446.647 253.383 442.48C245.115 434.212 240.199 423.535 238.637 410.449C238.507 409.342 238.441 407.194 238.441 404.004C238.441 400.814 238.507 398.698 238.637 397.656C238.702 397.07 238.897 395.801 239.223 393.848C241.046 383.236 245.635 373.6 252.992 364.941C253.773 363.965 254.164 363.411 254.164 363.281C254.164 363.216 250.193 358.268 242.25 348.438C234.242 338.542 230.238 333.529 230.238 333.398C230.173 333.268 236.716 328.288 249.867 318.457C263.083 308.561 269.789 303.613 269.984 303.613C270.115 303.613 273.793 309.147 281.02 320.215C288.181 331.217 291.827 336.719 291.957 336.719C292.022 336.719 292.901 336.361 294.594 335.645C304.88 331.217 317.283 328.385 331.801 327.148C333.233 327.018 336.293 326.953 340.98 326.953L348.012 326.855V354.59V382.324H343.91C331.605 382.389 321.579 384.961 313.832 390.039C306.996 394.531 302.732 400.358 301.039 407.52C300.388 410.189 300.258 412.728 300.648 415.137C301.234 419.108 303.22 422.819 306.605 426.27C312.595 432.454 321.579 436.198 333.559 437.5C334.6 437.63 336.716 437.695 339.906 437.695C343.096 437.695 345.31 437.663 346.547 437.598L348.012 437.5V446.582C348.012 452.572 347.947 455.599 347.816 455.664C347.751 455.664 347.589 455.697 347.328 455.762C347.068 455.827 346.677 455.892 346.156 455.957C345.701 456.022 345.245 456.087 344.789 456.152C338.344 457.064 331.215 457.715 323.402 458.105C321.514 458.171 318.357 458.203 313.93 458.203C309.568 458.203 306.475 458.171 304.652 458.105ZM414.145 450.781V443.652L416.098 443.555C422.478 443.164 427.882 441.504 432.309 438.574C435.108 436.686 437.387 434.473 439.145 431.934C442.595 427.051 444.581 421.191 445.102 414.355C445.622 407.52 443.637 401.823 439.145 397.266C435.043 393.034 429.151 390.299 421.469 389.062C420.102 388.867 414.665 388.77 405.16 388.77L390.316 388.672V362.207V335.84H428.598H466.879L468.832 336.23C473.78 337.012 478.24 338.704 482.211 341.309C484.685 343.001 487.224 345.182 489.828 347.852C494.19 352.344 497.641 356.966 500.18 361.719C503.826 368.685 506.039 376.4 506.82 384.863C507.602 393.262 506.853 401.432 504.574 409.375C500.277 424.284 491.586 436.035 478.5 444.629C466.651 452.376 452.133 456.771 434.945 457.812C434.034 457.878 430.16 457.91 423.324 457.91H414.145V450.781ZM404.477 307.129V287.305H438.461H472.445V307.129V326.855H438.461H404.477V307.129ZM604.008 453.809C597.888 453.613 592.68 452.962 588.383 451.855C581.352 450.033 575.004 447.266 569.34 443.555C563.741 439.844 559.314 435.482 556.059 430.469C552.738 425.456 550.622 419.759 549.711 413.379C549.516 412.077 549.418 409.928 549.418 406.934C549.418 403.874 549.516 401.595 549.711 400.098C550.753 392.415 553.064 384.473 556.645 376.27L557.621 374.121H567.68C574.385 374.121 577.738 374.219 577.738 374.414C577.673 374.479 577.576 375.033 577.445 376.074C576.99 378.418 577.087 380.762 577.738 383.105C578.52 385.579 579.854 387.728 581.742 389.551C586.82 394.629 596.033 397.819 609.379 399.121C611.267 399.251 614.392 399.349 618.754 399.414C623.116 399.414 626.339 399.349 628.422 399.219C639.164 398.372 648.995 396.875 657.914 394.727C659.086 394.401 659.802 394.238 660.062 394.238C660.193 394.238 660.258 403.32 660.258 421.484C660.258 439.648 660.225 448.73 660.16 448.73L659.672 448.828C659.346 448.893 658.891 448.991 658.305 449.121C657.719 449.251 657.165 449.382 656.645 449.512C647.465 451.53 637.439 452.897 626.566 453.613C619.665 454.004 612.146 454.069 604.008 453.809ZM565.238 329.883V301.367H610.453H655.668V329.883V358.398H610.453H565.238V329.883ZM726.488 450.781V443.652L728.441 443.555C734.822 443.164 740.225 441.504 744.652 438.574C747.452 436.686 749.73 434.473 751.488 431.934C754.939 427.051 756.924 421.191 757.445 414.355C757.966 407.52 755.98 401.823 751.488 397.266C747.387 393.034 741.495 390.299 733.812 389.062C732.445 388.867 727.009 388.77 717.504 388.77L702.66 388.672V362.207V335.84H740.941H779.223L781.176 336.23C786.124 337.012 790.583 338.704 794.555 341.309C797.029 343.001 799.568 345.182 802.172 347.852C806.534 352.344 809.984 356.966 812.523 361.719C816.169 368.685 818.383 376.4 819.164 384.863C819.945 393.262 819.197 401.432 816.918 409.375C812.621 424.284 803.93 436.035 790.844 444.629C778.995 452.376 764.477 456.771 747.289 457.812C746.378 457.878 742.504 457.91 735.668 457.91H726.488V450.781ZM716.82 307.129V287.305H750.805H784.789V307.129V326.855H750.805H716.82V307.129ZM415.805 712.91C412.81 712.715 409.978 712.422 407.309 712.031C402.035 711.185 397.999 709.883 395.199 708.125L394.516 707.734V699.531V691.328L395.688 691.523C399.919 692.174 403.923 692.337 407.699 692.012C413.428 691.426 417.855 689.603 420.98 686.543C422.348 685.176 423.357 683.809 424.008 682.441C424.659 681.009 424.984 679.935 424.984 679.219C424.984 679.089 423.52 678.991 420.59 678.926C414.926 678.861 409.783 678.079 405.16 676.582C392.53 672.415 385.629 664.082 384.457 651.582C384.327 650.215 384.294 648.164 384.359 645.43C384.424 642.63 384.555 640.84 384.75 640.059C385.987 634.785 388.819 629.935 393.246 625.508C400.017 618.737 408.546 614.798 418.832 613.691L420.688 613.496V612.129V610.762H397.445H374.203V588.984V567.109H401.742L429.184 567.012L429.281 561.836V556.66H453.012H476.645L476.742 561.836V567.012L492.074 567.109H507.406V588.984V610.762H494.223H480.941V611.445C480.941 611.51 480.941 611.901 480.941 612.617C481.007 613.268 481.072 614.18 481.137 615.352C481.202 616.458 481.234 617.533 481.234 618.574C481.82 634.46 481.788 646.471 481.137 654.609C480.16 668.411 477.523 679.512 473.227 687.91C468.995 696.243 462.777 702.559 454.574 706.855C448.91 709.785 441.911 711.738 433.578 712.715C432.341 712.845 429.444 712.943 424.887 713.008C420.329 713.073 417.302 713.04 415.805 712.91ZM434.457 657.539C436.475 656.888 437.875 655.488 438.656 653.34C439.503 651.126 439.438 649.01 438.461 646.992C437.68 645.234 436.28 643.997 434.262 643.281C433.741 643.086 432.829 642.988 431.527 642.988C430.225 642.988 429.314 643.086 428.793 643.281C425.342 644.518 423.617 646.927 423.617 650.508C423.617 652.201 424.105 653.698 425.082 655C426.059 656.302 427.361 657.181 428.988 657.637C429.574 657.767 430.486 657.832 431.723 657.832C432.96 657.832 433.871 657.734 434.457 657.539ZM591.215 715.547C588.22 715.286 585.714 714.961 583.695 714.57L579.594 713.887C570.479 712.65 563.578 708.581 558.891 701.68C554.724 695.625 553.487 688.301 555.18 679.707C556.221 674.564 558.5 670.234 562.016 666.719C567.029 661.706 574.027 658.809 583.012 658.027C588.09 657.572 592.419 658.223 596 659.98C599.06 661.478 601.729 663.496 604.008 666.035C606.352 668.574 608.012 671.341 608.988 674.336C610.616 679.479 610.388 684.557 608.305 689.57L607.621 691.035L608.793 690.645C611.983 689.473 614.75 687.78 617.094 685.566C620.674 682.051 622.465 677.396 622.465 671.602C622.465 666.914 621.781 663.203 620.414 660.469C619.503 658.581 618.168 656.823 616.41 655.195C613.155 652.07 608.76 649.792 603.227 648.359C598.995 647.318 594.6 646.797 590.043 646.797C583.467 646.797 576.436 647.839 568.949 649.922C563.546 651.354 558.207 653.275 552.934 655.684L551.371 656.367C550.264 630.651 549.711 617.5 549.711 616.914C549.711 616.784 549.776 616.719 549.906 616.719C550.102 616.719 550.199 616.654 550.199 616.523C550.199 616.458 559.021 612.227 576.664 603.828C580.961 601.81 585.323 599.759 589.75 597.676C594.242 595.527 597.66 593.9 600.004 592.793L603.52 591.133C603.78 591.003 603.78 590.938 603.52 590.938C603.324 590.938 603.031 590.938 602.641 590.938C589.88 591.849 575.98 592.305 560.941 592.305H554.496V575.41V558.613H603.617H652.738V575.508L652.641 592.402L627.934 599.727L603.129 607.148L608.793 607.246C617.582 607.441 625.395 608.353 632.23 609.98C642.191 612.454 650.622 616.458 657.523 621.992C659.932 623.945 662.406 626.484 664.945 629.609C670.674 636.836 674.223 644.811 675.59 653.535C676.241 657.767 676.176 663.138 675.395 669.648C674.027 680.391 670.512 689.147 664.848 695.918C659.249 702.689 651.241 707.767 640.824 711.152C636.072 712.78 630.18 714.115 623.148 715.156L619.926 715.645H606.352C596.846 715.645 591.801 715.612 591.215 715.547ZM590.043 696.992C591.801 696.146 592.842 695.495 593.168 695.039C594.665 693.086 595.349 690.905 595.219 688.496C595.154 686.087 594.307 684.004 592.68 682.246C591.638 681.139 590.434 680.358 589.066 679.902C588.35 679.642 587.243 679.512 585.746 679.512C584.118 679.512 583.012 679.609 582.426 679.805C578.259 681.042 576.013 683.874 575.688 688.301C575.492 691.165 576.404 693.607 578.422 695.625C580.115 697.318 582.458 698.164 585.453 698.164H587.699L590.043 696.992Z" fill="white"/>
</svg>
