<svg width="759" height="324" viewBox="0 0 759 324" fill="none" xmlns="http://www.w3.org/2000/svg">
<rect x="134" y="16" width="500" height="250" fill="#1D2C28"/>
<path d="M134 16C117.585 16 101.33 19.2332 86.1646 25.5151C70.9989 31.7969 57.219 41.0043 45.6116 52.6116C34.0043 64.219 24.7969 77.9989 18.5151 93.1646C12.2332 108.33 9 124.585 9 141C9 157.415 12.2332 173.67 18.5151 188.835C24.7969 204.001 34.0043 217.781 45.6117 229.388C57.219 240.996 70.9989 250.203 86.1646 256.485C101.33 262.767 117.585 266 134 266L263.5 141L134 16Z" fill="#1D2C28"/>
<path d="M634 266C650.415 266 666.67 262.767 681.835 256.485C697.001 250.203 710.781 240.996 722.388 229.388C733.996 217.781 743.203 204.001 749.485 188.835C755.767 173.67 759 157.415 759 141C759 124.585 755.767 108.33 749.485 93.1646C743.203 77.9989 733.996 64.219 722.388 52.6116C710.781 41.0043 697.001 31.7969 681.835 25.5151C666.67 19.2332 650.415 16 634 16L540.5 141L634 266Z" fill="#1D2C28"/>
<ellipse cx="64.3503" cy="104.958" rx="51.5" ry="39.5" transform="rotate(-30 64.3503 104.958)" fill="#151F1C"/>
<ellipse cx="609.35" cy="205.958" rx="51.5" ry="39.5" transform="rotate(-30 609.35 205.958)" fill="#151F1C"/>
<ellipse cx="690.777" cy="99.8574" rx="34.2349" ry="26.2579" transform="rotate(-30 690.777 99.8574)" fill="#151F1C"/>
<ellipse cx="444.35" cy="59.958" rx="51.5" ry="39.5" transform="rotate(-30 444.35 59.958)" fill="#151F1C"/>
<ellipse cx="246.591" cy="193.545" rx="92.8076" ry="54.4341" transform="rotate(-30 246.591 193.545)" fill="#151F1C"/>
<ellipse cx="641" cy="283.5" rx="24" ry="40.5" fill="#1D2C28"/>
<ellipse cx="595.5" cy="277" rx="13.5" ry="20" fill="#1D2C28"/>
<path d="M172.702 185.865V180.689L174.753 180.641C177.064 180.608 179.05 180.315 180.71 179.762C183.021 179.013 184.974 177.906 186.569 176.441C188.197 174.977 189.352 173.251 190.036 171.266C190.427 170.159 190.622 169.312 190.622 168.727V168.434H181.003H171.335V156.715V144.947H181.003H190.72V142.359V139.723L189.743 139.771C183.591 140.064 179.44 140.211 177.292 140.211H176.804V128.785V117.359H177.438C179.717 117.359 183.428 117.197 188.571 116.871C203.024 115.96 215.638 114.202 226.413 111.598C227.259 111.37 227.748 111.256 227.878 111.256C227.975 111.256 228.024 115.243 228.024 123.219L227.975 135.182L227.341 135.279C223.565 136.028 220.016 136.646 216.696 137.135C215.329 137.363 214.515 137.477 214.255 137.477L214.011 137.525V141.236V144.996H223.727H233.395V156.715V168.434H223.727H214.059L213.962 169.947C213.832 172.258 213.539 174.195 213.083 175.758C212.237 178.72 210.788 181.178 208.737 183.131C203.171 188.404 192.103 191.041 175.534 191.041H172.702V185.865ZM249.597 147.535V133.668H276.306H302.966V147.535V161.354H276.306H249.597V147.535ZM378.102 189.283L376.784 185.328L360.573 185.279C349.766 185.279 344.362 185.312 344.362 185.377C344.362 185.475 340.163 185.523 331.765 185.523C326.296 185.523 322.813 185.523 321.315 185.523C319.85 185.491 319.134 185.458 319.167 185.426C319.167 185.328 322.39 173.723 328.835 150.611L338.503 115.895H351.1H363.698L363.649 116.09C363.649 116.122 363.389 117.066 362.868 118.922C362.347 120.777 361.517 123.772 360.378 127.906C359.238 132.04 358.213 135.735 357.302 138.99L350.954 161.793H359.938H368.972C368.581 160.458 368.125 158.993 367.604 157.398C367.377 156.715 367.132 155.999 366.872 155.25C366.644 154.501 366.465 153.948 366.335 153.59L366.14 153.004H378.737H391.335L397.927 173.023C402.321 186.37 404.518 193.059 404.518 193.092C404.518 193.157 400.336 193.189 391.97 193.189H379.372L378.102 189.283ZM428.141 183.717L428.093 176.393C427.018 177.174 425.814 178.036 424.479 178.98C423.893 179.371 423.291 179.794 422.673 180.25C422.054 180.673 421.582 180.999 421.257 181.227L420.768 181.568C420.736 181.601 420.703 180.917 420.671 179.518C420.671 178.118 420.671 174.798 420.671 169.557V157.447L421.647 156.52C424.414 154.013 426.514 152.271 427.946 151.295L428.141 151.148V145.045C428.141 140.976 428.093 138.941 427.995 138.941C427.8 138.941 426.693 139.104 424.675 139.43C422.656 139.755 421.533 139.918 421.306 139.918C421.24 139.918 421.208 136.777 421.208 130.494V121.07H424.675H428.141V116.969V112.867H437.956H447.77V116.969V121.07H452.8H457.878V127.662V134.205L452.8 137.574L447.77 140.992V141.822V142.604C448.161 142.441 448.6 142.245 449.089 142.018C459.831 137.2 469.434 135.719 477.897 137.574C481.966 138.486 485.694 140.195 489.079 142.701C492.464 145.208 495.215 148.316 497.331 152.027C497.949 153.102 498.503 154.322 498.991 155.689C499.512 157.219 499.87 159.205 500.065 161.646C500.261 163.958 500.212 166.269 499.919 168.58C498.552 178.736 492.936 185.41 483.073 188.6C479.688 189.706 475.7 190.357 471.11 190.553C470.264 190.585 468.718 190.602 466.472 190.602C464.225 190.602 462.533 190.569 461.393 190.504L460.368 190.455V187.965C460.368 185.947 460.384 184.693 460.417 184.205L460.466 182.887L461.491 182.838C464.291 182.708 466.732 182.105 468.815 181.031C471.127 179.892 472.901 178.297 474.138 176.246C475.212 174.456 475.619 172.649 475.358 170.826C475.196 169.426 474.691 167.88 473.845 166.188C472.152 162.704 469.613 160.589 466.227 159.84C465.218 159.579 463.916 159.531 462.321 159.693C458.415 160.149 453.858 162.053 448.649 165.406L447.77 165.992V178.492V190.992H437.956H428.141V183.717ZM552.839 187.184C554.824 180.966 556.322 175.204 557.331 169.898C558.373 164.592 559.138 158.652 559.626 152.076C559.854 149.277 560 146.477 560.065 143.678L560.114 142.311H554.45H548.786V131.275V120.24H554.645H560.456L560.505 119.85C560.537 119.687 560.554 118.076 560.554 115.016V110.621H572.761H584.968V115.455V120.24H589.118H593.268V131.275V142.311H588.825H584.431L584.382 142.75C584.382 142.815 584.365 143.01 584.333 143.336C584.3 143.661 584.284 143.922 584.284 144.117C584.024 150.758 583.503 156.829 582.722 162.33C581.55 170.956 579.45 178.329 576.423 184.449C576.26 184.775 576.016 185.247 575.69 185.865C575.397 186.451 575.218 186.809 575.153 186.939L574.714 187.77H563.679H552.643L552.839 187.184ZM524.079 178.346C524.046 178.281 523.412 176.279 522.175 172.34C520.059 165.243 518.578 158.782 517.731 152.955C516.918 147.096 516.462 139.788 516.364 131.031L516.315 126.93H527.888H539.46L539.558 132.789C539.623 137.411 539.737 141.204 539.899 144.166C540.355 152.467 541.625 163.062 543.708 175.953C543.936 177.32 544.05 178.085 544.05 178.248C544.05 178.346 540.729 178.395 534.089 178.395C527.416 178.395 524.079 178.378 524.079 178.346Z" fill="#4ED3B0"/>
<path d="M167.435 182.865V177.689L169.486 177.641C171.797 177.608 173.783 177.315 175.443 176.762C177.754 176.013 179.707 174.906 181.302 173.441C182.93 171.977 184.085 170.251 184.769 168.266C185.16 167.159 185.355 166.312 185.355 165.727V165.434H175.736H166.068V153.715V141.947H175.736H185.453V139.359V136.723L184.476 136.771C178.324 137.064 174.173 137.211 172.025 137.211H171.537V125.785V114.359H172.171C174.45 114.359 178.161 114.197 183.304 113.871C197.757 112.96 210.371 111.202 221.146 108.598C221.992 108.37 222.481 108.256 222.611 108.256C222.708 108.256 222.757 112.243 222.757 120.219L222.708 132.182L222.074 132.279C218.298 133.028 214.749 133.646 211.429 134.135C210.062 134.363 209.248 134.477 208.988 134.477L208.744 134.525V138.236V141.996H218.46H228.128V153.715V165.434H218.46H208.792L208.695 166.947C208.565 169.258 208.272 171.195 207.816 172.758C206.969 175.72 205.521 178.178 203.47 180.131C197.904 185.404 186.836 188.041 170.267 188.041H167.435V182.865ZM244.329 144.535V130.668H271.038H297.699V144.535V158.354H271.038H244.329V144.535ZM372.835 186.283L371.517 182.328L355.306 182.279C344.499 182.279 339.095 182.312 339.095 182.377C339.095 182.475 334.896 182.523 326.497 182.523C321.029 182.523 317.546 182.523 316.048 182.523C314.583 182.491 313.867 182.458 313.9 182.426C313.9 182.328 317.122 170.723 323.568 147.611L333.236 112.895H345.833H358.431L358.382 113.09C358.382 113.122 358.122 114.066 357.601 115.922C357.08 117.777 356.25 120.772 355.111 124.906C353.971 129.04 352.946 132.735 352.035 135.99L345.687 158.793H354.671H363.704C363.314 157.458 362.858 155.993 362.337 154.398C362.109 153.715 361.865 152.999 361.605 152.25C361.377 151.501 361.198 150.948 361.068 150.59L360.872 150.004H373.47H386.068L392.66 170.023C397.054 183.37 399.251 190.059 399.251 190.092C399.251 190.157 395.068 190.189 386.703 190.189H374.105L372.835 186.283ZM422.874 180.717L422.826 173.393C421.751 174.174 420.547 175.036 419.212 175.98C418.626 176.371 418.024 176.794 417.406 177.25C416.787 177.673 416.315 177.999 415.99 178.227L415.501 178.568C415.469 178.601 415.436 177.917 415.404 176.518C415.404 175.118 415.404 171.798 415.404 166.557V154.447L416.38 153.52C419.147 151.013 421.247 149.271 422.679 148.295L422.874 148.148V142.045C422.874 137.976 422.826 135.941 422.728 135.941C422.533 135.941 421.426 136.104 419.408 136.43C417.389 136.755 416.266 136.918 416.038 136.918C415.973 136.918 415.941 133.777 415.941 127.494V118.07H419.408H422.874V113.969V109.867H432.689H442.503V113.969V118.07H447.533H452.611V124.662V131.205L447.533 134.574L442.503 137.992V138.822V139.604C442.894 139.441 443.333 139.245 443.822 139.018C454.564 134.2 464.167 132.719 472.63 134.574C476.699 135.486 480.427 137.195 483.812 139.701C487.197 142.208 489.948 145.316 492.064 149.027C492.682 150.102 493.236 151.322 493.724 152.689C494.245 154.219 494.603 156.205 494.798 158.646C494.994 160.958 494.945 163.269 494.652 165.58C493.285 175.736 487.669 182.41 477.806 185.6C474.421 186.706 470.433 187.357 465.843 187.553C464.997 187.585 463.451 187.602 461.204 187.602C458.958 187.602 457.266 187.569 456.126 187.504L455.101 187.455V184.965C455.101 182.947 455.117 181.693 455.15 181.205L455.199 179.887L456.224 179.838C459.024 179.708 461.465 179.105 463.548 178.031C465.859 176.892 467.634 175.297 468.871 173.246C469.945 171.456 470.352 169.649 470.091 167.826C469.928 166.426 469.424 164.88 468.578 163.188C466.885 159.704 464.346 157.589 460.96 156.84C459.951 156.579 458.649 156.531 457.054 156.693C453.148 157.149 448.591 159.053 443.382 162.406L442.503 162.992V175.492V187.992H432.689H422.874V180.717ZM547.572 184.184C549.557 177.966 551.055 172.204 552.064 166.898C553.106 161.592 553.871 155.652 554.359 149.076C554.587 146.277 554.733 143.477 554.798 140.678L554.847 139.311H549.183H543.519V128.275V117.24H549.378H555.189L555.238 116.85C555.27 116.687 555.287 115.076 555.287 112.016V107.621H567.494H579.701V112.455V117.24H583.851H588.001V128.275V139.311H583.558H579.163L579.115 139.75C579.115 139.815 579.098 140.01 579.066 140.336C579.033 140.661 579.017 140.922 579.017 141.117C578.757 147.758 578.236 153.829 577.454 159.33C576.283 167.956 574.183 175.329 571.156 181.449C570.993 181.775 570.749 182.247 570.423 182.865C570.13 183.451 569.951 183.809 569.886 183.939L569.447 184.77H558.412H547.376L547.572 184.184ZM518.812 175.346C518.779 175.281 518.145 173.279 516.908 169.34C514.792 162.243 513.311 155.782 512.464 149.955C511.65 144.096 511.195 136.788 511.097 128.031L511.048 123.93H522.621H534.193L534.29 129.789C534.356 134.411 534.469 138.204 534.632 141.166C535.088 149.467 536.357 160.062 538.441 172.953C538.669 174.32 538.783 175.085 538.783 175.248C538.783 175.346 535.462 175.395 528.822 175.395C522.149 175.395 518.812 175.378 518.812 175.346Z" fill="white"/>
</svg>
