<svg width="759" height="324" viewBox="0 0 759 324" fill="none" xmlns="http://www.w3.org/2000/svg">
<rect x="134" y="16" width="500" height="250" fill="#1D2C28"/>
<path d="M134 16C117.585 16 101.33 19.2332 86.1646 25.5151C70.9989 31.7969 57.219 41.0043 45.6116 52.6116C34.0043 64.219 24.7969 77.9989 18.5151 93.1646C12.2332 108.33 9 124.585 9 141C9 157.415 12.2332 173.67 18.5151 188.835C24.7969 204.001 34.0043 217.781 45.6117 229.388C57.219 240.996 70.9989 250.203 86.1646 256.485C101.33 262.767 117.585 266 134 266L207.5 141L134 16Z" fill="#1D2C28"/>
<path d="M634 266C650.415 266 666.67 262.767 681.835 256.485C697.001 250.203 710.781 240.996 722.388 229.388C733.996 217.781 743.203 204.001 749.485 188.835C755.767 173.67 759 157.415 759 141C759 124.585 755.767 108.33 749.485 93.1646C743.203 77.9989 733.996 64.219 722.388 52.6116C710.781 41.0043 697.001 31.7969 681.835 25.5151C666.67 19.2332 650.415 16 634 16L545 141L634 266Z" fill="#1D2C28"/>
<ellipse cx="64.3503" cy="104.958" rx="51.5" ry="39.5" transform="rotate(-30 64.3503 104.958)" fill="#151F1C"/>
<ellipse cx="609.35" cy="205.958" rx="51.5" ry="39.5" transform="rotate(-30 609.35 205.958)" fill="#151F1C"/>
<ellipse cx="690.777" cy="99.8574" rx="34.2349" ry="26.2579" transform="rotate(-30 690.777 99.8574)" fill="#151F1C"/>
<ellipse cx="444.35" cy="59.958" rx="51.5" ry="39.5" transform="rotate(-30 444.35 59.958)" fill="#151F1C"/>
<ellipse cx="246.591" cy="193.545" rx="92.8076" ry="54.4341" transform="rotate(-30 246.591 193.545)" fill="#151F1C"/>
<ellipse cx="641" cy="283.5" rx="24" ry="40.5" fill="#1D2C28"/>
<ellipse cx="595.5" cy="277" rx="13.5" ry="20" fill="#1D2C28"/>
<path d="M152.321 185.768C152.321 182.252 152.354 180.494 152.419 180.494L152.614 180.445C152.744 180.413 152.923 180.38 153.151 180.348C153.379 180.315 153.607 180.283 153.835 180.25C159.499 179.371 163.682 177.63 166.384 175.025C169.053 172.486 171.071 168.531 172.438 163.16C172.731 162.053 172.878 161.435 172.878 161.305C172.878 161.207 170.469 160.068 165.651 157.887C161.029 155.771 158.587 154.713 158.327 154.713L158.229 155.104C158.034 156.601 157.546 158.814 156.765 161.744L156.716 162.037H144.997H133.327V161.793C133.327 161.76 133.392 161.126 133.522 159.889C135.052 146.51 136.029 132.057 136.452 116.529L136.501 114.674H146.022C147.162 114.674 151.589 114.674 159.304 114.674C167.018 114.641 173.22 114.625 177.907 114.625L200.27 114.576V128.541C200.27 140.39 200.108 148.202 199.782 151.979C199.066 160.54 197.422 167.294 194.85 172.242C191.986 177.776 187.608 181.959 181.716 184.791C176.019 187.525 167.881 189.544 157.302 190.846C156.162 190.976 155.072 191.041 154.03 191.041H152.321V185.768ZM174.587 146.949C174.684 146.168 174.766 143.759 174.831 139.723L174.88 136.793H167.556H160.28L160.231 137.184C160.199 137.444 160.166 137.883 160.134 138.502C160.101 139.088 160.085 139.592 160.085 140.016C160.085 140.406 160.085 140.634 160.085 140.699L161.013 141.09C161.631 141.383 162.543 141.822 163.747 142.408C164.984 142.962 166.172 143.482 167.311 143.971C168.418 144.459 169.59 144.98 170.827 145.533C172.064 146.087 172.975 146.493 173.561 146.754L174.489 147.193C174.554 147.193 174.587 147.112 174.587 146.949ZM238.737 187.867C238.737 187.444 238.688 184.758 238.591 179.811C238.591 179.062 238.574 178.167 238.542 177.125C238.542 176.083 238.526 175.27 238.493 174.684C238.493 174.065 238.493 173.674 238.493 173.512L238.444 172.438L237.907 172.486C237.809 172.519 237.598 172.551 237.272 172.584C236.979 172.617 236.784 172.633 236.686 172.633C236.166 172.698 232.666 172.73 226.188 172.73L216.374 172.779V165.65V158.57L217.106 158.375C222.803 157.008 227.816 155.038 232.145 152.467C234.522 151.035 236.507 149.716 238.102 148.512C238.558 148.186 239.095 147.568 239.714 146.656C242.123 143.076 243.766 139.918 244.645 137.184C245.427 134.742 246.11 131.373 246.696 127.076L246.891 125.318V119.752V114.234H263.688H280.485L280.436 118.043C280.404 121.363 280.257 124.016 279.997 126.002C278.76 136.419 275.098 145.68 269.011 153.785C267.448 155.901 265.495 158.098 263.151 160.377L262.272 161.207L262.224 164.576C262.126 168.906 261.979 173.935 261.784 179.664C261.556 186.891 261.426 190.52 261.393 190.553C261.393 190.618 257.617 190.65 250.065 190.65H238.786L238.737 187.867ZM355.524 189.283L354.206 185.328L337.995 185.279C327.188 185.279 321.784 185.312 321.784 185.377C321.784 185.475 317.585 185.523 309.186 185.523C303.718 185.523 300.235 185.523 298.737 185.523C297.272 185.491 296.556 185.458 296.589 185.426C296.589 185.328 299.811 173.723 306.257 150.611L315.925 115.895H328.522H341.12L341.071 116.09C341.071 116.122 340.811 117.066 340.29 118.922C339.769 120.777 338.939 123.772 337.8 127.906C336.66 132.04 335.635 135.735 334.724 138.99L328.376 161.793H337.36H346.393C346.003 160.458 345.547 158.993 345.026 157.398C344.798 156.715 344.554 155.999 344.294 155.25C344.066 154.501 343.887 153.948 343.757 153.59L343.561 153.004H356.159H368.757L375.349 173.023C379.743 186.37 381.94 193.059 381.94 193.092C381.94 193.157 377.757 193.189 369.391 193.189H356.794L355.524 189.283ZM405.808 185.328V180.104H406.784C407.337 180.104 408.037 180.071 408.884 180.006C414.613 179.615 419.544 178.313 423.679 176.1C427.813 173.854 430.84 170.875 432.761 167.164C434.03 164.755 434.779 162.037 435.007 159.01L435.056 158.424H416.55H398.093V146.119V133.814H430.954H463.766V135.914C463.766 141.676 463.701 146.38 463.571 150.025C463.213 160.865 462.188 168.352 460.495 172.486C459.746 174.244 458.753 175.969 457.516 177.662C456.117 179.583 455.075 180.885 454.391 181.568C449.606 186.354 439.629 189.218 424.46 190.162C421.791 190.325 417.901 190.423 412.79 190.455L405.808 190.504V185.328ZM407.712 119.117V108.717H428.952H450.192V119.117V129.469H428.952H407.712V119.117ZM502.331 187.867C502.331 187.444 502.282 184.758 502.184 179.811C502.184 179.062 502.168 178.167 502.136 177.125C502.136 176.083 502.119 175.27 502.087 174.684C502.087 174.065 502.087 173.674 502.087 173.512L502.038 172.438L501.501 172.486C501.403 172.519 501.192 172.551 500.866 172.584C500.573 172.617 500.378 172.633 500.28 172.633C499.759 172.698 496.26 172.73 489.782 172.73L479.968 172.779V165.65V158.57L480.7 158.375C486.397 157.008 491.41 155.038 495.739 152.467C498.115 151.035 500.101 149.716 501.696 148.512C502.152 148.186 502.689 147.568 503.308 146.656C505.716 143.076 507.36 139.918 508.239 137.184C509.02 134.742 509.704 131.373 510.29 127.076L510.485 125.318V119.752V114.234H527.282H544.079L544.03 118.043C543.998 121.363 543.851 124.016 543.591 126.002C542.354 136.419 538.692 145.68 532.604 153.785C531.042 155.901 529.089 158.098 526.745 160.377L525.866 161.207L525.817 164.576C525.72 168.906 525.573 173.935 525.378 179.664C525.15 186.891 525.02 190.52 524.987 190.553C524.987 190.618 521.211 190.65 513.659 190.65H502.38L502.331 187.867ZM561.55 190.943H560.183V176.637V162.33L561.403 162.281C561.859 162.249 562.884 162.232 564.479 162.232C569.167 162.232 573.789 162.005 578.347 161.549C587.656 160.605 594.313 158.473 598.317 155.152C602.679 151.474 606.293 146.738 609.157 140.943C611.826 135.475 613.6 129.534 614.479 123.121C614.837 120.452 615.016 117.913 615.016 115.504V114.625H623.122H631.276V125.123C631.276 134.368 631.097 140.943 630.739 144.85C629.86 154.745 627.891 162.77 624.831 168.922C621.804 175.074 617.425 179.892 611.696 183.375C606.423 186.565 599.766 188.746 591.725 189.918C587.884 190.471 583.05 190.813 577.224 190.943C572.373 191.008 567.149 191.008 561.55 190.943ZM560.183 129.762V117.701H578.102L596.071 117.75V129.762V141.822H578.102L560.183 141.871V129.762Z" fill="#4ED3B0"/>
<path d="M147.054 182.768C147.054 179.252 147.087 177.494 147.152 177.494L147.347 177.445C147.477 177.413 147.656 177.38 147.884 177.348C148.112 177.315 148.34 177.283 148.568 177.25C154.232 176.371 158.415 174.63 161.117 172.025C163.786 169.486 165.804 165.531 167.171 160.16C167.464 159.053 167.611 158.435 167.611 158.305C167.611 158.207 165.202 157.068 160.384 154.887C155.762 152.771 153.32 151.713 153.06 151.713L152.962 152.104C152.767 153.601 152.279 155.814 151.497 158.744L151.449 159.037H139.73H128.06V158.793C128.06 158.76 128.125 158.126 128.255 156.889C129.785 143.51 130.762 129.057 131.185 113.529L131.234 111.674H140.755C141.895 111.674 146.322 111.674 154.037 111.674C161.751 111.641 167.953 111.625 172.64 111.625L195.003 111.576V125.541C195.003 137.39 194.841 145.202 194.515 148.979C193.799 157.54 192.155 164.294 189.583 169.242C186.719 174.776 182.341 178.959 176.449 181.791C170.752 184.525 162.614 186.544 152.035 187.846C150.895 187.976 149.805 188.041 148.763 188.041H147.054V182.768ZM169.32 143.949C169.417 143.168 169.499 140.759 169.564 136.723L169.613 133.793H162.288H155.013L154.964 134.184C154.932 134.444 154.899 134.883 154.867 135.502C154.834 136.088 154.818 136.592 154.818 137.016C154.818 137.406 154.818 137.634 154.818 137.699L155.746 138.09C156.364 138.383 157.275 138.822 158.48 139.408C159.717 139.962 160.905 140.482 162.044 140.971C163.151 141.459 164.323 141.98 165.56 142.533C166.797 143.087 167.708 143.493 168.294 143.754L169.222 144.193C169.287 144.193 169.32 144.112 169.32 143.949ZM233.47 184.867C233.47 184.444 233.421 181.758 233.324 176.811C233.324 176.062 233.307 175.167 233.275 174.125C233.275 173.083 233.259 172.27 233.226 171.684C233.226 171.065 233.226 170.674 233.226 170.512L233.177 169.438L232.64 169.486C232.542 169.519 232.331 169.551 232.005 169.584C231.712 169.617 231.517 169.633 231.419 169.633C230.899 169.698 227.399 169.73 220.921 169.73L211.107 169.779V162.65V155.57L211.839 155.375C217.536 154.008 222.549 152.038 226.878 149.467C229.255 148.035 231.24 146.716 232.835 145.512C233.291 145.186 233.828 144.568 234.447 143.656C236.856 140.076 238.499 136.918 239.378 134.184C240.16 131.742 240.843 128.373 241.429 124.076L241.624 122.318V116.752V111.234H258.421H275.218L275.169 115.043C275.137 118.363 274.99 121.016 274.73 123.002C273.493 133.419 269.831 142.68 263.744 150.785C262.181 152.901 260.228 155.098 257.884 157.377L257.005 158.207L256.956 161.576C256.859 165.906 256.712 170.935 256.517 176.664C256.289 183.891 256.159 187.52 256.126 187.553C256.126 187.618 252.35 187.65 244.798 187.65H233.519L233.47 184.867ZM350.257 186.283L348.939 182.328L332.728 182.279C321.921 182.279 316.517 182.312 316.517 182.377C316.517 182.475 312.318 182.523 303.919 182.523C298.451 182.523 294.968 182.523 293.47 182.523C292.005 182.491 291.289 182.458 291.322 182.426C291.322 182.328 294.544 170.723 300.99 147.611L310.658 112.895H323.255H335.853L335.804 113.09C335.804 113.122 335.544 114.066 335.023 115.922C334.502 117.777 333.672 120.772 332.533 124.906C331.393 129.04 330.368 132.735 329.456 135.99L323.109 158.793H332.093H341.126C340.736 157.458 340.28 155.993 339.759 154.398C339.531 153.715 339.287 152.999 339.027 152.25C338.799 151.501 338.62 150.948 338.49 150.59L338.294 150.004H350.892H363.49L370.081 170.023C374.476 183.37 376.673 190.059 376.673 190.092C376.673 190.157 372.49 190.189 364.124 190.189H351.527L350.257 186.283ZM400.54 182.328V177.104H401.517C402.07 177.104 402.77 177.071 403.617 177.006C409.346 176.615 414.277 175.313 418.412 173.1C422.546 170.854 425.573 167.875 427.494 164.164C428.763 161.755 429.512 159.037 429.74 156.01L429.788 155.424H411.283H392.826V143.119V130.814H425.687H458.499V132.914C458.499 138.676 458.434 143.38 458.304 147.025C457.946 157.865 456.921 165.352 455.228 169.486C454.479 171.244 453.486 172.969 452.249 174.662C450.85 176.583 449.808 177.885 449.124 178.568C444.339 183.354 434.362 186.218 419.193 187.162C416.524 187.325 412.634 187.423 407.523 187.455L400.54 187.504V182.328ZM402.445 116.117V105.717H423.685H444.925V116.117V126.469H423.685H402.445V116.117ZM497.064 184.867C497.064 184.444 497.015 181.758 496.917 176.811C496.917 176.062 496.901 175.167 496.869 174.125C496.869 173.083 496.852 172.27 496.82 171.684C496.82 171.065 496.82 170.674 496.82 170.512L496.771 169.438L496.234 169.486C496.136 169.519 495.925 169.551 495.599 169.584C495.306 169.617 495.111 169.633 495.013 169.633C494.492 169.698 490.993 169.73 484.515 169.73L474.701 169.779V162.65V155.57L475.433 155.375C481.13 154.008 486.143 152.038 490.472 149.467C492.848 148.035 494.834 146.716 496.429 145.512C496.885 145.186 497.422 144.568 498.04 143.656C500.449 140.076 502.093 136.918 502.972 134.184C503.753 131.742 504.437 128.373 505.023 124.076L505.218 122.318V116.752V111.234H522.015H538.812L538.763 115.043C538.731 118.363 538.584 121.016 538.324 123.002C537.087 133.419 533.425 142.68 527.337 150.785C525.775 152.901 523.822 155.098 521.478 157.377L520.599 158.207L520.55 161.576C520.453 165.906 520.306 170.935 520.111 176.664C519.883 183.891 519.753 187.52 519.72 187.553C519.72 187.618 515.944 187.65 508.392 187.65H497.113L497.064 184.867ZM556.283 187.943H554.915V173.637V159.33L556.136 159.281C556.592 159.249 557.617 159.232 559.212 159.232C563.9 159.232 568.522 159.005 573.079 158.549C582.389 157.605 589.046 155.473 593.05 152.152C597.412 148.474 601.025 143.738 603.89 137.943C606.559 132.475 608.333 126.534 609.212 120.121C609.57 117.452 609.749 114.913 609.749 112.504V111.625H617.855H626.009V122.123C626.009 131.368 625.83 137.943 625.472 141.85C624.593 151.745 622.624 159.77 619.564 165.922C616.537 172.074 612.158 176.892 606.429 180.375C601.156 183.565 594.499 185.746 586.458 186.918C582.617 187.471 577.783 187.813 571.956 187.943C567.106 188.008 561.882 188.008 556.283 187.943ZM554.915 126.762V114.701H572.835L590.804 114.75V126.762V138.822H572.835L554.915 138.871V126.762Z" fill="white"/>
</svg>
